<?xml version="1.0" encoding="utf-8"?>

<!DOCTYPE svg PUBLIC "-//W3C//DTD SVG 1.1//EN" "http://www.w3.org/Graphics/SVG/1.1/DTD/svg11.dtd">
<svg version="1.1" id="Layer_1" xmlns="http://www.w3.org/2000/svg" xmlns:xlink="http://www.w3.org/1999/xlink" x="0px" y="0px"
	 viewBox="0 0 2086.847 1657.886" enable-background="new 0 0 2086.847 1657.886" xml:space="preserve">
<g>
	<path fill="#892983" stroke="#892983" stroke-width="0.0625" d="M607.35,28.943h10.587c27.46,0.887,54.873,6.287,80.227,17
		c33.76,14,63.66,35.713,97.427,49.7c11.913,4.84,24.24,8.833,36.953,10.92c15.54,2.733,31.78,2.527,46.953-2.08
		c10.28-3.293,19.913-8.62,28.093-15.68c12.78-10.893,22.047-26.767,22.28-43.853c-0.393-3.553,5.387-4.147,5.833-0.687
		c2.413,17.82-1.587,36.173-9.847,52.04c-10.227,19.84-26.133,36.22-43.887,49.507c-6.56,4.92-13.487,9.313-20.527,13.493
		c19.56,16.38,37.147,35.133,52.187,55.753c15.227,20.727,27.307,43.587,37.553,67.133c20.947,47.707,35.18,98.367,60.54,144.107
		c11.713,21.173,25.773,41.273,43.327,58.04c19.553,19.047,44.18,33.073,70.82,39.293c23.987,5.6,50.247,4.307,72.46-6.96
		c20.3-10.627,35.833-29.513,43.36-51.053c6.567-18.613,6.307-40.2-3.58-57.62c-2.353-2.807,2.147-6.733,4.507-3.94
		c14.44,19.913,23.247,43.76,26.047,68.153c6.147,52.627-14.193,106.893-51.253,144.353c-18.633,18.867-41.72,33.38-66.993,41.493
		c-28.34,9.373-58.947,10.793-88.307,6.02c-23.913-3.893-47.12-11.62-68.98-21.993c3.787,24.513,11.773,48.847,26.207,69.24
		c7.333,10.34,16.3,19.633,27.007,26.507c15.04-3.347,30.147-6.46,45.387-8.78c60.773-9.153,123.613-1.573,181.193,19.547
		c34.233,12.547,66.747,29.82,96.213,51.3c4.36-46.207,21.827-91.207,50.407-127.84c12.567-16.193,27.487-30.433,43.427-43.273
		c30.813-24.827,65.193-44.72,96.613-68.733c24.467-18.847,47.313-40.647,63.313-67.3c10.74-18.127,18.327-38.633,18.94-59.86
		c0.353-21.46-5.767-43.1-17.833-60.9c-10.087-15-25.113-27.247-42.88-31.593c-2.827-0.793-5.767-0.98-8.607-1.633
		c-2.12-0.507-2.747-3.547-1.193-4.96c0.933-1.113,2.533-0.7,3.827-0.74c37.953,3.08,75.32,14.747,107.8,34.733
		c25.24,15.427,47.44,35.72,65.347,59.247c16.92,22.16,29.967,47.18,39.073,73.513c9.553,28.207,15.06,57.893,15.26,87.707
		c0.18,33.42-6.713,67.173-22.173,96.94c48.007,15.553,91.84,42.733,128.787,76.933c37.887,35,68.873,77.227,92.113,123.207
		c25.633,50.74,41.867,106.26,47.133,162.88c1.08,12.273,1.727,24.593,1.933,36.92v10.287c-0.647,58.627-12.067,117.04-32.98,171.78
		c-18.94,49.587-45.653,96.293-79.547,137.187c-31.4,37.967-69.313,70.627-111.98,95.333c-50.893,29.64-108.1,48.293-166.64,54.653
		c-16.433,2.007-32.987,2.4-49.513,2.68c-7.053-0.493-14.133-0.2-21.18-0.753c-31.44-1.78-62.713-7-92.98-15.707
		c-40.42-11.353-78.28-29.967-115.213-49.607c-1.953-0.913-3.74-2.247-5.827-2.78c-18.707-0.847-37.413-2.033-56.14-2.147
		c-59.48-0.58-118.887,3.62-178.02,9.74c-34.34,3.7-68.593,8.147-102.727,13.42c-10.68,1.813-21.447,3.18-32.067,5.36
		c-5.413,15.753-8.727,32.313-8.86,49.007c-0.353,6.053,2.02,11.773,3.18,17.627c3.633,14.62,8.173,29.007,13.193,43.207
		c0.84,1.753,0.013,3.707-1.72,4.513h-1.62c-1.627-0.58-2.327-2.2-3.153-3.533c-9.147-15.487-14.313-33.213-15.487-51.127
		c-0.24-3.173-0.233-6.367-1.1-9.44c-3.087-15.333-5.273-30.88-6.1-46.507c-32.2,5.853-64.273,12.54-95.993,20.653
		c-8.507,1.993-16.787,5.133-25.507,6.1c-20.16,1.593-40.3-1.753-60.007-5.707c-32.787-7.12-64.853-17.88-94.9-32.873
		c-16.78-8.533-32.987-18.44-47.273-30.76c-10.653-9.24-20.287-19.88-27.173-32.247c-0.607-1.12-0.46-2.6,0.453-3.487
		c29.093-33.4,64.107-61.52,102.62-83.34c37.853-21.333,78.813-36.947,120.98-47.3c43.12-10.533,87.44-16.073,131.8-16.993
		c-1.913-2.247-3.813-4.507-5.72-6.753c-44.76,9.953-90.32,16.313-136.093,19.047c-64.34,3.653-129.3-0.073-192.407-13.553
		c-13.507-3.08-27.167-5.707-41-6.713c-33.06-2.853-66.467,0.727-98.6,8.747c-49.887,12.613-96.833,35.507-139.093,64.667
		c-34.32,23.647-65.573,51.733-92.633,83.44c-0.733,0.973-1.86,1.5-3.047,1.707c-56.88,12.227-117.093,8.087-171.873-11.493
		c-24.993-9.013-48.867-21.287-70.447-36.82c-0.62-0.493-1.127-1.093-1.607-1.693v-2.06c19.64-40.373,42.967-78.94,69.44-115.2
		c30.207-41.127,64.34-79.44,102.42-113.433c-22.733-40.08-26.453-90.733-8.5-133.32c18.447-43.64,59.213-76.48,105.187-87.053
		c2.347-0.627,4.913-0.693,7.06-1.933c58.527-38.113,128.207-59.28,198.127-58.853c-0.087-5.833-0.24-11.667-0.26-17.493
		c0.06-8.513-0.48-17.013-0.28-25.527c-8.5,1.82-16.953,3.847-25.493,5.48c-31.76,6.607-63.827,11.567-95.687,17.66
		c-15.14,3.113-30.38,6.173-44.873,11.653c-1.88,0.733-3.707,1.707-5.74,1.907c-11.987,1.467-24.113,1.293-36.107,0.033
		c-13.9-1.527-27.68-4.373-40.913-8.913c-12.233-4.2-24.107-9.753-34.567-17.427c-7.267-5.313-13.813-11.74-18.647-19.367
		c-8.06-12.84-13.927-27.007-17.833-41.64c-4.427-16.827-6.567-34.713-2.973-51.907c2.14-10.313,7.013-20.32,14.987-27.367
		c3.613-3.407,8.16-5.533,12.127-8.46c6.993-4.993,12.933-11.54,16.84-19.22c5.067-9.927,7.167-21.073,8.133-32.087
		c-37.553-17.627-70.593-44.427-96.447-76.8c-33.733-42.187-55.36-94.547-58.333-148.68c-0.413-13.587-0.413-27.24,1.26-40.753
		c4.56-39.34,18.367-77.453,39.287-111.033c11.013-17.847,24.233-34.273,38.813-49.32c-5.98-10.593-11.62-21.373-17.28-32.14
		c-2.007-4.18-4.42-8.167-6.187-12.453c-2-5.04-0.907-10.873,2.047-15.3c5.58-8.507,17.927-11.953,26.9-6.867
		c14.993,8.673,29.62,17.98,44.18,27.367c24.893-15.193,52.393-26.44,81.2-31.44c37.353-6.467,76.433-3.667,112.2,9.073
		c2.133-4.4,4.26-8.813,6.633-13.093c23.873-44.247,62.58-80.74,109.16-100.073C549.157,35.53,578.217,29.63,607.35,28.943
		 M577.703,37.556c-36.26,5.467-71.287,19.913-100.267,42.487c-40.66,31.6-69.733,77.733-80.813,128.013
		c3.793-1.74,7.687-3.247,11.613-4.647c2.413-0.713,3.467-3.22,5.1-4.907c33.253-40.093,76.86-71.287,125.047-90.907
		c47.04-19.26,98.733-27.427,149.373-22.427c61.5,6.093,120.627,31.287,168.687,69.96c21.44-12.047,41.233-27.773,55.673-47.853
		c7.073-10.06,12.94-21.2,15.727-33.247c-3.247,4.987-6.647,9.913-10.827,14.187c-9.393,9.687-21.14,17.067-33.92,21.393
		c-15.807,5.38-32.913,5.7-49.307,3.3c-15.58-2.427-30.667-7.373-45.1-13.653c-33.5-14.647-63.48-36.347-97.607-49.687
		c-21.067-8.213-43.46-12.9-66.013-14.273C609.257,34.723,593.344,34.95,577.703,37.556 M544.01,111.836
		c-46.973,18.533-89.72,48.187-122.66,86.547c13.253-5.573,27.387-9.147,41.753-10.067c8.847-0.827,17.74-0.207,26.58,0.387
		c8.507-3.667,16.873-7.753,25.573-11.007c77.9-30.58,166.773-33.713,246.027-6.22c27.407,9.553,53.487,22.847,77.413,39.273
		c42.06,28.84,77.533,67.047,103.833,110.707c29.5,48.92,47.54,105.027,50.113,162.2c0.607,16.653,0.3,33.327-0.527,49.96
		c-1.387,33.68-4.413,67.607-0.047,101.207c14.22,7.113,29.12,12.867,44.38,17.333c26.927,7.707,55.453,10.907,83.28,6.82
		c25.693-3.553,50.64-13.12,71.76-28.247c21.42-15.227,38.953-35.68,51.407-58.78c13.12-24.593,20.88-52.34,20.753-80.307
		c0.327-20.1-3.693-40.26-11.567-58.747c0.12,7.08,0.173,14.207-1.173,21.2c-4.687,25.44-20.087,48.667-41.58,63.033
		c-21.06,14-47.567,18.007-72.327,14.653c-26.833-3.64-52.273-15.3-73.48-31.987c-18.46-14.7-33.78-33.033-46.507-52.833
		c-14.353-22.34-25.533-46.54-35.493-71.1c-10.747-26.62-20.16-53.76-31.167-80.273c-9.56-23.007-20.387-45.607-34.213-66.387
		c-46.16-69.44-121.193-118.733-203.04-134.3C656.65,83.996,597.33,90.676,544.01,111.836 M269.743,163.13
		c-17.76,5.533-34.773,13.333-50.773,22.793c1.047,1.387,2.74,2.033,4.12,3.027c34.66,22.707,68.76,46.26,102.713,70.013
		c2.567-2.74,5.093-5.52,7.713-8.2c16.113-16.6,35.427-29.92,56.32-39.787c3.08-15.567,7.933-30.76,14.207-45.333
		c-24.607-8.793-50.88-12.613-76.973-11.833C307.657,154.23,288.303,157.423,269.743,163.13 M561.817,169.196
		c-50.607,12.487-98.64,36.167-138.393,70.013c-4.187,2.807-5.093,8.113-7.58,12.2c26.02-10.913,54.46-14.96,82.533-14.973
		c18.713-0.267,37.38,1.32,55.987,3.08c5.687-2.22,11.427-4.34,17.32-5.94c1.493-0.887,2.673-2.26,4.3-2.94
		c4.793-2.133,10.22-1.38,15.24-0.613c18.2-15.127,40.387-24.433,62.807-31.34c18.747-5.873,37.96-10.087,57.073-14.56
		c1.467-0.533,2.933,0.473,3.6,1.76c8.393,14.753,16.773,29.547,23.847,44.993c6.687,14.753,12.207,30.16,14.927,46.167
		c2.933,16.207,2.96,32.953-0.027,49.153c-2.607,15.08-7.773,29.627-14.307,43.433c-11,22.913-25.853,43.76-42.22,63.127
		c-1.28,1.507-2.447,3.327-4.5,3.827c-2.527-0.407-3.887-3.233-2.24-5.32c6.9-7.813,13.32-16.04,19.467-24.453
		c15.067-20.84,28.033-43.64,34.907-68.56c4.887-17.253,6.233-35.48,4.053-53.273c-2.153-17.507-7.813-34.413-15.047-50.447
		c-6.773-15.133-15.007-29.547-23.1-43.993c-3.147,0.66-6.287,1.367-9.413,2.067c-25.98,6.167-52.22,12.36-76.533,23.687
		c-18.36,8.567-35.427,20.88-47.187,37.58c-0.287,2.367,0.967,4.787,1.293,7.173c2.273,12.253,9.093,23.02,16.713,32.647
		c2.22-1.7,3.913-3.98,6.027-5.807c19.607-18.42,46.767-28.873,73.72-27.3c1.14,0.013,1.987,0.967,2.393,1.967
		c16.747,39.78,9.593,88.187-17.187,121.907c4.567,9.66,8.493,19.6,12.2,29.607c1.293,3.587,1.993,7.46,4.133,10.687
		c5.667,9.2,10.9,18.673,15.607,28.407c12.813,25.9,21.24,53.707,27.96,81.74c6.893,28.153,12.3,56.667,19.907,84.647
		c7.173,26.52,16.553,52.687,30.68,76.36c25.84,43.307,65.787,77.833,111.98,97.907c26.373,11.44,54.867,18.28,83.66,18.873
		c30.08,0.613,60.16-5.347,88.067-16.487c24.307-9.727,47.14-23.193,67.36-39.827c-12.82,3.653-26.433,4.467-39.553,2.02
		c-24.22-4.12-46.853-17.2-62.307-36.333c-16.073-19.38-25.627-43.373-30.807-67.82c-3.727-18.18-5.467-36.747-5.293-55.3
		c-0.507-33.82,3.507-67.52,3.06-101.333c0.113-15.873-1.347-31.713-3.633-47.407c-8.307-54.06-30.18-105.78-62.107-150.113
		c-29.347-40.767-67.307-75.513-111.2-100.073c-29.487-16.56-61.66-28.253-94.827-34.78
		C664.583,155.183,611.85,156.81,561.817,169.196 M145.257,169.496c-0.707,2.54,0.047,5.22,1.167,7.527
		c8.56,16.673,17.307,33.267,26.553,49.573c18.227-6.267,34.72-17.547,47.053-32.373c-17.673-11.68-35.547-23.067-53.827-33.767
		C158.523,155.816,147.177,160.783,145.257,169.496 M360.297,235.45c-10.8,7.88-20.567,17.087-29.513,27
		c11,7.893,22.12,15.633,33.053,23.627c12.5-12.787,27.487-22.92,43.4-30.94c3.387-6.067,5.867-12.627,9.44-18.6
		c0.693-1.393,2.34-1.62,3.487-2.487c17.413-14.6,36.2-27.66,56.333-38.22c-2.033-0.047-4.073,0.02-6.1,0.167
		C431.17,199.376,392.243,212.096,360.297,235.45 M225.21,197.656c-12.753,15.807-30.153,27.573-49.167,34.547
		c9.227,16.013,18.647,31.913,28.34,47.647c14.873-2.547,29.107-8.727,41.253-17.667c11.553-8.467,20.893-19.687,27.907-32.127
		C257.49,219.176,241.517,208.163,225.21,197.656 M91.663,380.27c-3.893,30.42-1.687,61.58,6.28,91.187
		c19.887,73.593,72.927,137.413,141.5,170.653c0.653-7.933,1.007-15.893,1.347-23.847c-25.44-22.693-45.633-51.313-58.153-83.04
		c-10.127-25.433-15.02-52.96-13.893-80.333c-17.333-4.34-34.253-11.373-48.38-22.48c-11.773-9.213-21.327-21.513-26.373-35.653
		c-0.933-2.16,1.6-4.733,3.747-3.8c1.9,0.913,3.513,2.313,5.333,3.367c9.553,5.793,20.427,9.267,31.487,10.693
		c14.347,1.86,29.047,0.74,43.033-2.88c9.253-30.413,25.513-58.52,46.533-82.313c-20.36-30.72-39.527-62.227-57.633-94.32
		C126.25,268.756,98.87,322.93,91.663,380.27 M278.577,233.623c-6.753,12.26-15.973,23.16-26.953,31.827
		c-12.733,10.013-27.867,16.833-43.7,20.133c9.227,14.533,18.527,29.033,28.033,43.387c22.353-9.673,42.54-24.2,59.407-41.733
		c7.773-8.513,15.487-17.327,20.953-27.54C303.743,250.996,291.284,242.116,278.577,233.623 M576.063,238.636
		c-0.793,2.28-0.633,4.707-0.52,7.073c2.96-2.6,5.153-5.98,8.107-8.62C581.083,237.416,578.577,238.07,576.063,238.636
		 M524.33,264.79c-18.613,15.16-32.967,35.627-40.287,58.527c-8.713,26.613-8.667,56.033,0.24,82.593
		c4.307,12.827,10.807,24.853,18.673,35.84c20.267,28.187,48.193,49.353,74.413,71.62c12.453,10.593,24.953,21.247,35.76,33.567
		c16.84,18.953,31.107,40.807,38.287,65.307c3.727,12.707,5.047,26.107,3.7,39.28c20.7-38.967,29.873-83.353,30.1-127.287
		c-0.087-33.287-5.133-66.573-15.2-98.313c-11.727-37.027-30.173-72.153-55.573-101.647c-12.493-14.507-27.027-27.713-35.793-45
		c-3.787-7.153-5.62-15.093-7.313-22.94c-1.047-5.22-2.107-10.507-1.787-15.86C553.077,245.51,537.643,253.87,524.33,264.79
		 M491.23,242.503c-27.653,0.827-55.607,5.747-80.66,17.867c-22.04,10.487-41.733,26.193-56.093,45.993
		c-15.46,21.14-24.24,46.713-27.02,72.64c-2.66,25.813,0.513,52.367,10.46,76.413c9.32,22.747,24.193,43.52,43.953,58.307
		c-1.093-2.873-2.62-5.547-3.78-8.393c-5.627-13.427-9.08-27.767-10.22-42.28c-2.28-26.413,2.4-53.827,15.74-76.947
		c12.313-21.58,31.793-39.607,55.467-47.827c11.447-4.14,23.733-4.953,35.8-5.04c0.68-1.06,0.653-2.44,1.04-3.627
		c3.733-14.527,9.92-28.433,18.353-40.84c12.533-18.413,29.673-33.707,49.42-44.013C526.29,242.79,508.737,242.076,491.23,242.503
		 M300.377,290.963c-17.22,18.22-38.027,32.987-60.833,43.373c9.087,13.573,18.353,27.033,27.647,40.467
		c0.487,0.587,0.9,1.707,1.9,1.373c15.833-4.987,30.827-12.613,44.293-22.307c5.833-4.293,11.653-8.72,16.673-13.947
		c2.513-6.44,5.093-12.887,8.347-19.007c5.673-11.073,12.987-21.247,21.253-30.533c-12.727-8.987-25.367-18.093-38.133-27.027
		C315.73,273.443,308.27,282.47,300.377,290.963 M599.397,298.496c8.653,10.04,18.073,19.413,26.253,29.867
		c8.073,10.16,15.38,20.92,21.967,32.1c3.527,5.8,6.467,11.933,9.833,17.813c23.54-31.447,29.72-75.207,15.173-111.78
		C645.05,265.51,617.683,278.01,599.397,298.496 M184.517,402.163c25.053-7.92,46.513-24.367,64.373-43.273
		c-7.14-10.533-14.373-21-21.26-31.7C208.343,348.883,193.617,374.61,184.517,402.163 M441.497,344.01
		c-15.673,12.04-30.76,24.833-46.347,36.993c-1.1,0.88-2.28,1.707-3.107,2.873c-11.88,18.04-17.773,39.58-18.64,61.047
		c-0.893,24.547,4.333,49.64,16.727,70.987c1.313,2.42,3.127,4.553,4.313,7.047c0.8,2.273-1.913,4.553-4.06,3.527
		c-12.5-7-23.453-16.54-32.84-27.32c-16.393-19.107-27.767-42.407-33.153-66.973c-2.42,0.733-4.553,2.153-6.94,2.973
		c-3.627,1.633-7.62,2.08-11.347,3.353c-14.76,6.833-30.153,12.273-45.96,16.133c-5.267,25.967-6.12,52.56-7.113,78.947
		c-0.573,21.8-1.6,43.613-4.387,65.26c-2.527,19.253-2.033,38.773-4.647,58.013c-1.6,10.86-4.6,21.733-10.587,31.047
		c-5.42,8.633-13.24,15.573-22.027,20.667c-7.96,4.693-13.78,12.533-16.727,21.227c-4.06,11.533-4.307,24.02-2.98,36.06
		c1.813,15.027,6.067,29.727,12.22,43.547c4.4,9.527,9.34,19.093,16.893,26.533c8.393,8.287,18.627,14.5,29.347,19.32
		c13.667,6.08,28.227,10.007,42.98,12.373c14.84,2.133,30.02,3.067,44.913,0.92c22.127-8.78,45.8-12.507,69.08-16.933
		c34.987-6.2,70.073-12.047,104.647-20.307c2.22-0.76,4.273,1.407,3.913,3.587c-0.073,12.9,0.24,25.787,0.427,38.687
		c0.187,7.12,0.04,14.26,0.793,21.353c-1.713,17.447-7.853,34.227-16.32,49.493c-11.407,20.44-26.793,38.4-43.673,54.513
		c5.053,6.747,9.607,13.907,13.313,21.487c0.833,1.98-0.807,3.607-1.907,5.047c-12.74,16.88-26.347,33.1-40.96,48.387
		c-34.72,36.293-75.6,67.313-121.853,87.34c-25.4,11.087-52.273,18.76-79.68,22.847c-1.24,0.273-2.533-0.2-3.247-1.24
		c-4.007-4.813-7.733-9.873-11.007-15.213c-4.033,3.187-7.693,6.86-11.48,10.347c-28.967,27.28-55.747,56.927-79.733,88.68
		c74.653,26.54,141.84,73.873,191.847,135.34c31.193-29.653,66.18-55.36,103.973-75.973c51.027-27.793,107.86-46.54,166.247-48.487
		c23.447-0.713,47.007,1.56,69.853,6.9c58.853,12.907,119.4,17.373,179.553,14.967c49.533-1.94,98.827-8.54,147.28-18.92
		c-1.413-2.76-3.507-5.107-5.047-7.787c-17.513-27.527-26.307-60.02-27.967-92.433c-0.033-5.767-0.753-11.54-0.207-17.293
		c0.127-14.327,1.96-28.587,4.853-42.607c5-23.5,13.653-46.327,26.433-66.72c13.98-22.24,33.08-41.12,55.027-55.493
		c23.02-15.107,49.173-25.347,76.287-30.107c28.333-4.833,57.84-3.633,85.387,4.793c3.127,0.147,4.26,4.813,1.187,5.947
		c-2.527,0.447-4.873-0.86-7.253-1.413c-22.173-6.14-45.553-7.587-68.367-4.833c-50.313,6.087-98.567,32.127-129.227,72.8
		c-14.88,19.74-25.067,42.747-31.3,66.593c-7.513,29.2-9.193,59.94-4.553,89.747c3.34,21.4,10.12,42.367,20.833,61.24
		c6.26,11.053,14.013,21.253,22.887,30.347c1.593,1.487,0.507,4.627-1.667,4.793c-5.327,0.327-10.673,0.313-16,0.54
		c-35.827,1.42-71.587,5.527-106.64,13.153c-40.633,8.733-80.32,22.22-117.433,41c1.087,1.26,2.607,2.013,3.913,3.027
		c59.94,43.167,105.273,106.393,126.453,177.187c32.067-7.847,64.353-14.847,96.86-20.667c-0.78-27.98,2.433-56.247,11.307-82.873
		c5.22-16.147,12.627-31.527,21.327-46.073c25.34-42.573,61.66-78.44,104.213-103.747c29.507-17.667,62.167-29.967,95.947-36.34
		c37.98-7.233,76.873-8.067,115.393-6.253c33.873,1.487,67.613,4.9,101.4,7.633c16.473,1.433,32.967,2.713,49.487,3.4
		c20.553-47.74,30.7-99.813,30.56-151.733c-0.18-66.487-17.66-133.327-52.727-190.033c-18.553-30.027-41.793-57.107-68.36-80.32
		c-33.773-29.54-72.813-53-114.647-69.187c-55.6-21.58-116.447-30.233-175.74-22.98c-15.967,2.04-31.793,5.007-47.487,8.533
		c1.627,1.253,3.573,1.967,5.427,2.847c11.927,5.46,24.98,8.5,38.1,8.6c14.153,0.04,28.533-3.713,40.153-11.967
		c1.327-0.907,2.633-2.347,4.427-1.96c2.42,0.147,3.34,3.72,1.42,5.14c-27.927,27.26-61.813,48.533-98.773,61.167
		c-31.927,10.953-66.28,15.153-99.84,11.093c-65.22-8.22-125.927-44.607-165.3-97.04c-15.587-20.527-27.36-43.753-35.9-68.02
		c-19.653-54.953-24.927-113.893-45.227-168.647c-4.687-12.753-10.42-25.093-16.58-37.193c0.093,2.287,0.887,4.453,1.327,6.68
		c5.62,25.547,8.233,51.773,7.64,77.92c-1.107,49.927-14.2,100.333-41.813,142.307c-0.56,1.153-1.773,1.56-2.873,2.02
		c-0.927-0.507-2.133-0.74-2.567-1.813c-0.88-1.44,0.1-3.013,0.58-4.393c4.727-12.013,6.013-25.153,4.68-37.947
		c-1.653-14.873-6.873-29.16-13.807-42.353c-11.607-21.76-27.773-40.867-46.167-57.193c-24.1-21.713-50.533-40.873-72.92-64.46
		c-16.227-17.093-30.213-36.88-37.68-59.413c-7.333-21.873-8.947-45.627-4.733-68.3C462.944,339.49,451.69,339.876,441.497,344.01
		 M1602.95,343.143c18.627,11.573,31.733,30.56,38.773,51.093c6.54,19.207,8.253,40.3,3.347,60.087
		c-4.487,19.707-13.727,38.1-25.493,54.447c-16.74,23.2-38.213,42.553-61.027,59.627c-30.053,22.38-62.447,41.507-91.693,64.993
		c-15.947,12.807-30.84,27.067-43.307,43.327c-28.147,36.547-45.187,81.473-48.687,127.447c4.62,3.44,9.127,7.04,13.567,10.727
		c1.74,1.18,3.113,3.113,5.053,3.9c5.633-4.853,11.293-9.707,17.253-14.18c2.86-2.027,4.733-5.04,6.987-7.66
		c5.407-6.573,11.027-12.98,16.94-19.107c49.667-52.307,116.073-88.36,186.94-101.753c17.873-3.26,35.987-5.5,54.173-5.687
		c8.2-0.727,16.413,0.107,24.627,0.213c25.127,1.333,50.127,5.553,74.24,12.793c9.5-18.293,15.947-38.14,19.147-58.493
		c5.487-32.987,2.72-66.94-5.34-99.28c-6.693-26.953-17.44-52.953-32.2-76.507c-16.173-25.907-37.28-48.78-62.08-66.64
		C1667.097,362.983,1635.73,349.39,1602.95,343.143 M272.117,381.643c11.567,16.887,23.627,33.433,35.633,50.007
		c5.447-0.673,10.333-3.34,15.193-5.707c-1.087-8.74-2.407-17.487-2.407-26.32c-0.2-16.14,1.567-32.413,6.033-47.953
		C310.39,364.763,292.057,375.47,272.117,381.643 M215.31,394.51c-21.273,13.28-46.507,20.26-71.6,19.393
		c-13.84-0.613-27.7-3.773-40.013-10.247c8.193,15.733,22.553,27.413,38.247,35.193c24.013,11.78,51.2,15.847,77.747,15.127
		c28.413-0.787,56.253-8.46,82.093-20.047c-0.807-1.48-1.867-2.787-2.847-4.14c-15.76-21.78-31.38-43.66-46.533-65.867
		C241.324,375.543,229.043,386.123,215.31,394.51 M174.737,456.303c-0.127,6.42-0.167,12.86,0.273,19.267
		c3.633,51.333,28.793,100.127,66.34,134.947c1.247-13.867,3.493-27.64,4.08-41.56c2.447-37.68,1.36-75.713,8.213-112.993
		C227.737,461.47,200.703,461.37,174.737,456.303 M1601.357,686.79c-69.407,17.84-133.007,57.973-178.473,113.427
		c17.6-12.42,38.14-20.54,59.433-23.747c21.88-3.56,44.293-2.353,66.053,1.493c41.22,7.647,80.253,24.947,115.247,47.8
		c21.953,14.387,42.353,31.18,60.44,50.22c16.647,17.3,30.147,37.607,39.487,59.733c17.467,41.02,21.467,87.173,13.833,130.92
		c-8.367,48.493-31.613,95.033-68.313,128.247c-18.3,16.627-39.947,29.253-62.753,38.627c-26.293,10.713-54.333,16.733-82.553,19.4
		c-33.7,3.373-67.647,2.273-101.387-0.007c-62.38-4.087-124.68-12.827-187.327-10.187c-35.16,1.473-70.467,6.887-103.58,19.14
		c-63.913,23.54-119.147,70.073-152.853,129.293c-8.353,14.567-15.213,30.033-19.913,46.167c-5.147,17.187-7.94,35.027-8.847,52.927
		c-0.993,17.407,0.233,34.853,2.42,52.127c0.813-2.173,0.86-4.52,1.4-6.747c7.507-37.233,27.527-72.273,57.213-96.213
		c14.247-11.38,30.867-19.54,48.153-25.18c17.653-5.68,36.187-8.373,54.7-8.82c31.74-0.493,63.313,5.6,93.38,15.507
		c23.04,7.593,45.193,17.607,66.9,28.38c47.927,23.767,93.74,51.953,143.507,71.893c87.193,35.18,186.347,39.12,276.273,11.927
		c50.487-15.1,98.073-39.953,139.16-72.973c39.547-31.747,72.833-70.967,99.22-114.2c29.347-48.16,50.287-101.387,61.9-156.567
		c6.327-30.62,10.087-61.84,10.207-93.12c1.153-63.073-11.873-126.267-37.007-184.093c-20.607-47.473-49.287-91.553-85.147-128.927
		c-35.553-37.073-78.487-67.553-126.5-86.207c-27.647-10.793-56.9-17.46-86.487-19.753
		C1673.017,674.316,1636.443,677.763,1601.357,686.79 M1449.563,792.076c-18.113,7.827-34.28,20.073-46.76,35.347
		c14.087,12.987,27.247,26.993,39.133,42.027c0.887,1.053,1.607,2.54,3.16,2.713c4.387,1.127,8.813,2.153,13.307,2.847
		c17.707,2.44,34.953,7.847,51.087,15.507c47.533,22.72,85.253,65.473,101.167,115.773c9.287,29.62,11.033,61.433,5.813,91.987
		c-4.367,26.467-13.82,52.08-27.607,75.093c-13.88,23.04-32.107,43.7-54.28,59.067c-9.253,6.313-18.973,12.12-29.413,16.233
		c8.6,0.733,17.26,0.233,25.886,0.133c36.867-0.76,74.073-5.84,108.647-19.153c23.64-9.233,46.173-21.9,65.04-39
		c16.8-15.113,30.767-33.26,41.667-53.027c28.92-52.98,36.553-117.367,20.12-175.507c-7.547-26.26-20.24-51.147-37.927-72.027
		c-15.293-17.827-32.793-33.693-51.64-47.68c-21.807-16.12-45.44-29.793-70.4-40.407c-32.393-13.713-67.42-22.64-102.793-21.487
		C1485.21,781.016,1466.63,784.67,1449.563,792.076 M1398.61,821.816c-0.827-0.027-1.473,1.573-0.393,1.667
		C1398.977,823.47,1399.663,821.89,1398.61,821.816 M1449.65,879.45c1.547,2.313,3.293,4.5,4.853,6.827
		c35.587,50.5,56.64,110.653,62.727,172c6.567,64.407-3.1,130.473-28.173,190.193c5.287-1.287,10.22-3.727,15.247-5.78
		c13.107-5.947,25.493-13.493,36.66-22.58c17.973-14.587,32.86-32.787,44.46-52.773c14.953-25.967,24.347-55.167,27.053-85.02
		c2.747-28.967-0.993-58.653-11.66-85.767c-21.06-53.313-67.627-96.26-123.06-111.46
		C1468.537,882.463,1459.023,881.303,1449.65,879.45 M325.543,938.556c4.953,0.107,9.88-0.82,14.833-0.307
		c43.313,1.193,85.4,22.467,112.773,55.933c9.547-9.087,18.5-18.813,26.573-29.233c15.447-20.047,27.96-43.32,30.993-68.76
		c-0.087-3.027-0.26-6.06-0.407-9.08C445.517,886.696,380.984,905.19,325.543,938.556 M208.503,1024.35
		c-24.053,48.927-16.64,111.387,17.82,153.56c47.047-7.14,92.127-25.587,131.34-52.433c41.227-27.987,76.18-64.34,106.133-103.973
		c-0.953-2.813-2.753-5.213-4.173-7.793c-26.067-42.86-75.627-70.507-125.86-69.467C281.63,945.53,231.59,977.623,208.503,1024.35
		 M116.557,1271.696c-28.067,37.34-52.7,77.28-73.3,119.207c20.107,14.127,42.08,25.553,65.147,34.013
		c54.2,19.927,114.02,24.087,170.507,12.153c9.14-10.72,18.813-20.987,28.893-30.827c-16.72-20.873-35.693-39.913-56.087-57.193
		C211.79,1315.443,165.837,1288.916,116.557,1271.696 M749.323,1356.483c-41.3,21.827-78.853,50.9-109.773,85.96
		c8.54,14.5,20.947,26.307,34.307,36.347c17.773,13.233,37.553,23.533,57.92,32.14c32.927,13.56,67.56,23.393,102.98,27.5
		c10.193,0.993,20.567,1.72,30.733,0.087c5.173-1.167,10.267-2.654,15.413-3.953c-21.12-70.387-66.513-133.14-126.487-175.553
		C752.757,1358.203,751.29,1355.91,749.323,1356.483 M1062.477,1438.33c-24.78,16.86-42.96,42.093-54.38,69.56
		c79.1-13.167,158.893-22.52,238.993-26.427c35.513-1.58,71.12-2.28,106.633-0.247c3.113,0.233,6.287,0.04,9.367,0.727
		c-11.053-6.28-22.387-12.053-33.607-18.013c-23.693-12.3-47.747-24.04-72.813-33.313c-31.867-11.62-65.54-19.287-99.58-19.167
		C1123.93,1411.423,1090.257,1419.823,1062.477,1438.33z"/>
	<path fill="#FF99AF" stroke="#FF99AF" stroke-width="0.0625" d="M577.703,37.556c15.64-2.607,31.553-2.833,47.367-2.26
		c22.553,1.373,44.947,6.06,66.013,14.273c34.127,13.34,64.107,35.04,97.607,49.687c14.433,6.28,29.52,11.227,45.1,13.653
		c16.393,2.4,33.5,2.08,49.307-3.3c12.78-4.327,24.527-11.707,33.92-21.393c4.18-4.273,7.58-9.2,10.827-14.187
		c-2.787,12.047-8.653,23.187-15.727,33.247c-14.44,20.08-34.233,35.807-55.673,47.853c-48.06-38.673-107.187-63.867-168.687-69.96
		c-50.64-5-102.333,3.167-149.373,22.427c-48.187,19.62-91.793,50.813-125.047,90.907c-1.633,1.687-2.687,4.193-5.1,4.907
		c-3.927,1.4-7.82,2.907-11.613,4.647c11.08-50.28,40.153-96.413,80.813-128.013C506.417,57.47,541.443,43.023,577.703,37.556z"/>
	<path fill="#DFAFF6" stroke="#DFAFF6" stroke-width="0.0625" d="M544.01,111.836c53.32-21.16,112.64-27.84,169.093-16.933
		c81.847,15.567,156.88,64.86,203.04,134.3c13.827,20.78,24.653,43.38,34.213,66.387c11.007,26.513,20.42,53.653,31.167,80.273
		c9.96,24.56,21.14,48.76,35.493,71.1c12.727,19.8,28.047,38.133,46.507,52.833c21.207,16.687,46.647,28.347,73.48,31.987
		c24.76,3.353,51.267-0.653,72.327-14.653c21.493-14.367,36.893-37.593,41.58-63.033c1.347-6.993,1.293-14.12,1.173-21.2
		c7.873,18.487,11.893,38.647,11.567,58.747c0.127,27.967-7.633,55.713-20.753,80.307c-12.453,23.1-29.987,43.553-51.407,58.78
		c-21.12,15.127-46.067,24.693-71.76,28.247c-27.827,4.087-56.353,0.887-83.28-6.82c-15.26-4.467-30.16-10.22-44.38-17.333
		c-4.367-33.6-1.34-67.527,0.047-101.207c0.827-16.633,1.133-33.307,0.527-49.96c-2.573-57.173-20.613-113.28-50.113-162.2
		c-26.3-43.66-61.773-81.867-103.833-110.707c-23.927-16.427-50.007-29.72-77.413-39.273c-79.253-27.493-168.127-24.36-246.027,6.22
		c-8.7,3.253-17.067,7.34-25.573,11.007c-8.84-0.593-17.733-1.213-26.58-0.387c-14.367,0.92-28.5,4.493-41.753,10.067
		C454.29,160.023,497.037,130.37,544.01,111.836z"/>
	<path fill="#FF99AF" stroke="#FF99AF" stroke-width="0.0625" d="M269.743,163.13c18.56-5.707,37.913-8.9,57.327-9.32
		c26.093-0.78,52.367,3.04,76.973,11.833c-6.273,14.573-11.127,29.767-14.207,45.333c-20.893,9.867-40.207,23.187-56.32,39.787
		c-2.62,2.68-5.147,5.46-7.713,8.2C291.85,235.21,257.75,211.656,223.09,188.95c-1.38-0.993-3.073-1.64-4.12-3.027
		C234.97,176.463,251.983,168.663,269.743,163.13z"/>
	<path fill="#9FF4E6" stroke="#9FF4E6" stroke-width="0.0625" d="M561.817,169.196c50.033-12.387,102.767-14.013,153.36-3.967
		c33.167,6.527,65.34,18.22,94.827,34.78c43.893,24.56,81.853,59.307,111.2,100.073c31.927,44.333,53.8,96.053,62.107,150.113
		c2.287,15.693,3.747,31.533,3.633,47.407c0.447,33.813-3.567,67.513-3.06,101.333c-0.173,18.553,1.567,37.12,5.293,55.3
		c5.18,24.447,14.733,48.44,30.807,67.82c15.453,19.133,38.087,32.213,62.307,36.333c13.12,2.447,26.733,1.633,39.553-2.02
		c-20.22,16.633-43.053,30.1-67.36,39.827c-27.907,11.14-57.987,17.1-88.067,16.487c-28.793-0.593-57.287-7.433-83.66-18.873
		c-46.193-20.073-86.14-54.6-111.98-97.907c-14.127-23.673-23.507-49.84-30.68-76.36c-7.607-27.98-13.013-56.493-19.907-84.647
		c-6.72-28.033-15.147-55.84-27.96-81.74c-4.707-9.733-9.94-19.207-15.607-28.407c-2.14-3.227-2.84-7.1-4.133-10.687
		c5.88,5.753,11.813,11.447,17.693,17.2c-1.647,2.087-0.287,4.913,2.24,5.32c2.053-0.5,3.22-2.32,4.5-3.827
		c16.367-19.367,31.22-40.213,42.22-63.127c6.533-13.807,11.7-28.353,14.307-43.433c2.987-16.2,2.96-32.947,0.027-49.153
		c-2.72-16.007-8.24-31.413-14.927-46.167c-7.073-15.447-15.453-30.24-23.847-44.993c-0.667-1.287-2.133-2.293-3.6-1.76
		c-19.113,4.473-38.327,8.687-57.073,14.56c-22.42,6.907-44.607,16.213-62.807,31.34c-5.02-0.767-10.447-1.52-15.24,0.613
		c-1.627,0.68-2.807,2.053-4.3,2.94c-5.893,1.6-11.633,3.72-17.32,5.94c-18.607-1.76-37.273-3.347-55.987-3.08
		c-28.073,0.013-56.513,4.06-82.533,14.973c2.487-4.087,3.393-9.393,7.58-12.2C463.177,205.363,511.21,181.683,561.817,169.196z"/>
	<path fill="#FFFFFF" stroke="#FFFFFF" stroke-width="0.0625" d="M145.257,169.496c1.92-8.713,13.267-13.68,20.947-9.04
		c18.28,10.7,36.153,22.087,53.827,33.767c-12.333,14.827-28.827,26.107-47.053,32.373c-9.247-16.307-17.993-32.9-26.553-49.573
		C145.303,174.716,144.55,172.036,145.257,169.496z"/>
	<path fill="#FFFFFF" stroke="#FFFFFF" stroke-width="0.0625" d="M701.05,192.603c3.127-0.7,6.267-1.407,9.413-2.067
		c8.093,14.447,16.327,28.86,23.1,43.993c7.233,16.033,12.893,32.94,15.047,50.447c2.18,17.793,0.833,36.02-4.053,53.273
		c-6.873,24.92-19.84,47.72-34.907,68.56c-6.147,8.413-12.567,16.64-19.467,24.453c-5.88-5.753-11.813-11.447-17.693-17.2
		c-3.707-10.007-7.633-19.947-12.2-29.607c26.78-33.72,33.933-82.127,17.187-121.907c-0.407-1-1.253-1.953-2.393-1.967
		c-26.953-1.573-54.113,8.88-73.72,27.3c-2.113,1.827-3.807,4.107-6.027,5.807c-7.62-9.627-14.44-20.393-16.713-32.647
		c-0.327-2.387-1.58-4.807-1.293-7.173c11.76-16.7,28.827-29.013,47.187-37.58C648.83,204.963,675.07,198.77,701.05,192.603z"/>
	<path fill="#FFD3E0" stroke="#FFD3E0" stroke-width="0.0625" d="M360.297,235.45c31.947-23.353,70.873-36.073,110.1-39.453
		c2.027-0.147,4.067-0.213,6.1-0.167c-20.133,10.56-38.92,23.62-56.333,38.22c-1.147,0.867-2.793,1.093-3.487,2.487
		c-3.573,5.973-6.053,12.533-9.44,18.6c-15.913,8.02-30.9,18.153-43.4,30.94c-10.933-7.993-22.053-15.733-33.053-23.627
		C339.73,252.536,349.497,243.33,360.297,235.45z"/>
	<path fill="#FFFFFF" stroke="#FFFFFF" stroke-width="0.0625" d="M225.21,197.656c16.307,10.507,32.28,21.52,48.333,32.4
		c-7.013,12.44-16.353,23.66-27.907,32.127c-12.147,8.94-26.38,15.12-41.253,17.667c-9.693-15.733-19.113-31.633-28.34-47.647
		C195.057,225.23,212.457,213.463,225.21,197.656z"/>
	<path fill="#FF99AF" stroke="#FF99AF" stroke-width="0.0625" d="M91.663,380.27c7.207-57.34,34.587-111.513,74.827-152.767
		c18.107,32.093,37.273,63.6,57.633,94.32c-21.02,23.793-37.28,51.9-46.533,82.313c-13.987,3.62-28.687,4.74-43.033,2.88
		c-11.06-1.427-21.933-4.9-31.487-10.693c-1.82-1.053-3.433-2.453-5.333-3.367c-2.147-0.933-4.68,1.64-3.747,3.8
		c5.047,14.14,14.6,26.44,26.373,35.653c14.127,11.107,31.047,18.14,48.38,22.48c-1.127,27.373,3.767,54.9,13.893,80.333
		c12.52,31.727,32.713,60.347,58.153,83.04c-0.34,7.953-0.693,15.913-1.347,23.847c-68.573-33.24-121.613-97.06-141.5-170.653
		C89.977,441.85,87.77,410.69,91.663,380.27z"/>
	<path fill="#FFFFFF" stroke="#FFFFFF" stroke-width="0.0625" d="M278.577,233.623c12.707,8.493,25.167,17.373,37.74,26.073
		c-5.467,10.213-13.18,19.027-20.953,27.54c-16.867,17.533-37.053,32.06-59.407,41.733c-9.507-14.353-18.807-28.853-28.033-43.387
		c15.833-3.3,30.967-10.12,43.7-20.133C262.603,256.783,271.823,245.883,278.577,233.623z"/>
	<path fill="#9FF5E6" stroke="#9FF5E6" stroke-width="0.0625" d="M576.063,238.636c2.513-0.567,5.02-1.22,7.587-1.547
		c-2.953,2.64-5.147,6.02-8.107,8.62C575.43,243.343,575.27,240.916,576.063,238.636z"/>
	<path fill="#FFF1A4" stroke="#FFF1A4" stroke-width="0.0625" d="M524.33,264.79c13.313-10.92,28.747-19.28,45.22-24.313
		c-0.32,5.353,0.74,10.64,1.787,15.86c1.693,7.847,3.527,15.787,7.313,22.94c8.767,17.287,23.3,30.493,35.793,45
		c25.4,29.493,43.847,64.62,55.573,101.647c10.067,31.74,15.113,65.027,15.2,98.313c-0.227,43.933-9.4,88.32-30.1,127.287
		c1.347-13.173,0.027-26.573-3.7-39.28c-7.18-24.5-21.447-46.353-38.287-65.307c-10.807-12.32-23.307-22.973-35.76-33.567
		c-26.22-22.267-54.147-43.433-74.413-71.62c-7.867-10.987-14.367-23.013-18.673-35.84c-8.907-26.56-8.953-55.98-0.24-82.593
		C491.363,300.416,505.717,279.95,524.33,264.79z"/>
	<path fill="#FFF1A4" stroke="#FFF1A4" stroke-width="0.0625" d="M491.23,242.503c17.507-0.427,35.06,0.287,52.46,2.253
		c-19.747,10.307-36.887,25.6-49.42,44.013c-8.433,12.407-14.62,26.313-18.353,40.84c-0.387,1.187-0.36,2.567-1.04,3.627
		c-12.067,0.087-24.353,0.9-35.8,5.04c-23.673,8.22-43.153,26.247-55.467,47.827c-13.34,23.12-18.02,50.533-15.74,76.947
		c1.14,14.513,4.593,28.853,10.22,42.28c1.16,2.847,2.687,5.52,3.78,8.393c-19.76-14.787-34.633-35.56-43.953-58.307
		c-9.947-24.047-13.12-50.6-10.46-76.413c2.78-25.927,11.56-51.5,27.02-72.64c14.36-19.8,34.053-35.507,56.093-45.993
		C435.623,248.25,463.577,243.33,491.23,242.503z"/>
	<path fill="#FFFFFF" stroke="#FFFFFF" stroke-width="0.0625" d="M300.377,290.963c7.893-8.493,15.353-17.52,21.147-27.607
		c12.767,8.933,25.407,18.04,38.133,27.027c-8.267,9.287-15.58,19.46-21.253,30.533c-3.253,6.12-5.833,12.567-8.347,19.007
		c-5.02,5.227-10.84,9.653-16.673,13.947c-13.467,9.693-28.46,17.32-44.293,22.307c-1,0.333-1.413-0.787-1.9-1.373
		c-9.293-13.433-18.56-26.893-27.647-40.467C262.35,323.95,283.157,309.183,300.377,290.963z"/>
	<path fill="#F7CEDE" stroke="#F7CEDE" stroke-width="0.0625" d="M599.397,298.496c18.287-20.487,45.653-32.987,73.227-32
		c14.547,36.573,8.367,80.333-15.173,111.78c-3.367-5.88-6.307-12.013-9.833-17.813c-6.587-11.18-13.893-21.94-21.967-32.1
		C617.47,317.91,608.05,308.536,599.397,298.496z"/>
	<path fill="#FFD3E0" stroke="#FFD3E0" stroke-width="0.0625" d="M184.517,402.163c9.1-27.553,23.827-53.28,43.113-74.973
		c6.887,10.7,14.12,21.167,21.26,31.7C231.03,377.796,209.57,394.243,184.517,402.163z"/>
	<path fill="#FFFFFF" stroke="#FFFFFF" stroke-width="0.0625" d="M441.497,344.01c10.193-4.133,21.447-4.52,32.307-4.633
		c-4.213,22.673-2.6,46.427,4.733,68.3c7.467,22.533,21.453,42.32,37.68,59.413c22.387,23.587,48.82,42.747,72.92,64.46
		c18.393,16.327,34.56,35.433,46.167,57.193c6.933,13.193,12.153,27.48,13.807,42.353c1.333,12.793,0.047,25.933-4.68,37.947
		c-0.48,1.38-1.46,2.953-0.58,4.393c0.433,1.073,1.64,1.307,2.567,1.813c1.1-0.46,2.313-0.867,2.873-2.02
		c27.613-41.973,40.707-92.38,41.813-142.307c0.593-26.147-2.02-52.373-7.64-77.92c-0.44-2.227-1.233-4.393-1.327-6.68
		c6.16,12.1,11.893,24.44,16.58,37.193c20.3,54.753,25.573,113.693,45.227,168.647c8.54,24.267,20.313,47.493,35.9,68.02
		c39.373,52.433,100.08,88.82,165.3,97.04c33.56,4.06,67.913-0.14,99.84-11.093c36.96-12.633,70.847-33.907,98.773-61.167
		c1.92-1.42,1-4.993-1.42-5.14c-1.793-0.387-3.1,1.053-4.427,1.96c-11.62,8.253-26,12.007-40.153,11.967
		c-13.12-0.1-26.173-3.14-38.1-8.6c-1.853-0.88-3.8-1.593-5.427-2.847c15.693-3.527,31.52-6.493,47.487-8.533
		c59.293-7.253,120.14,1.4,175.74,22.98c41.833,16.187,80.873,39.647,114.647,69.187c26.567,23.213,49.807,50.293,68.36,80.32
		c35.067,56.707,52.547,123.547,52.727,190.033c0.14,51.92-10.007,103.993-30.56,151.733c-16.52-0.687-33.013-1.967-49.487-3.4
		c-33.787-2.733-67.527-6.147-101.4-7.633c-38.52-1.813-77.413-0.98-115.393,6.253c-33.78,6.373-66.44,18.673-95.947,36.34
		c-42.553,25.307-78.873,61.173-104.213,103.747c-8.7,14.547-16.107,29.927-21.327,46.073
		c-8.873,26.627-12.087,54.893-11.307,82.873c-32.507,5.82-64.793,12.82-96.86,20.667c-21.18-70.793-66.513-134.02-126.453-177.187
		c-1.307-1.013-2.827-1.767-3.913-3.027c37.113-18.78,76.8-32.267,117.433-41c35.053-7.627,70.813-11.733,106.64-13.153
		c5.327-0.227,10.673-0.213,16-0.54c2.173-0.167,3.26-3.307,1.667-4.793c-8.873-9.093-16.627-19.293-22.887-30.347
		c-10.713-18.873-17.493-39.84-20.833-61.24c-4.64-29.807-2.96-60.547,4.553-89.747c6.233-23.847,16.42-46.853,31.3-66.593
		c30.66-40.673,78.913-66.713,129.227-72.8c22.813-2.753,46.193-1.307,68.367,4.833c2.38,0.553,4.727,1.86,7.253,1.413
		c3.073-1.133,1.94-5.8-1.187-5.947c-27.547-8.427-57.053-9.627-85.387-4.793c-27.113,4.76-53.267,15-76.287,30.107
		c-21.947,14.373-41.047,33.253-55.027,55.493c-12.78,20.393-21.433,43.22-26.433,66.72c-2.893,14.02-4.727,28.28-4.853,42.607
		c-0.547,5.753,0.173,11.527,0.207,17.293c1.66,32.413,10.453,64.907,27.967,92.433c1.54,2.68,3.633,5.027,5.047,7.787
		c-48.453,10.38-97.747,16.98-147.28,18.92c-60.153,2.407-120.7-2.06-179.553-14.967c-22.847-5.34-46.407-7.613-69.853-6.9
		c-58.387,1.947-115.22,20.693-166.247,48.487c-37.793,20.613-72.78,46.32-103.973,75.973
		c-50.007-61.467-117.193-108.8-191.847-135.34c23.987-31.753,50.767-61.4,79.733-88.68c3.787-3.487,7.447-7.16,11.48-10.347
		c3.273,5.34,7,10.4,11.007,15.213c0.713,1.04,2.007,1.513,3.247,1.24c27.407-4.087,54.28-11.76,79.68-22.847
		c46.253-20.027,87.133-51.047,121.853-87.34c14.613-15.287,28.22-31.507,40.96-48.387c1.1-1.44,2.74-3.067,1.907-5.047
		c-3.707-7.58-8.26-14.74-13.313-21.487c16.88-16.113,32.267-34.073,43.673-54.513c8.467-15.267,14.607-32.047,16.32-49.493
		c-0.753-7.093-0.607-14.233-0.793-21.353c-0.187-12.9-0.5-25.787-0.427-38.687c0.36-2.18-1.693-4.347-3.913-3.587
		c-34.573,8.26-69.66,14.107-104.647,20.307c-23.28,4.427-46.953,8.153-69.08,16.933c-14.893,2.147-30.073,1.213-44.913-0.92
		c-14.753-2.367-29.313-6.293-42.98-12.373c-10.72-4.82-20.953-11.033-29.347-19.32c-7.553-7.44-12.493-17.007-16.893-26.533
		c-6.153-13.82-10.407-28.52-12.22-43.547c-1.327-12.04-1.08-24.527,2.98-36.06c2.947-8.693,8.767-16.533,16.727-21.227
		c8.787-5.093,16.607-12.033,22.027-20.667c5.987-9.313,8.987-20.187,10.587-31.047c2.613-19.24,2.12-38.76,4.647-58.013
		c2.787-21.647,3.813-43.46,4.387-65.26c0.993-26.387,1.847-52.98,7.113-78.947c15.807-3.86,31.2-9.3,45.96-16.133
		c3.727-1.273,7.72-1.72,11.347-3.353c2.387-0.82,4.52-2.24,6.94-2.973c5.387,24.567,16.76,47.867,33.153,66.973
		c9.387,10.78,20.34,20.32,32.84,27.32c2.147,1.027,4.86-1.253,4.06-3.527c-1.187-2.493-3-4.627-4.313-7.047
		c-12.393-21.347-17.62-46.44-16.727-70.987c0.867-21.467,6.76-43.007,18.64-61.047c0.827-1.167,2.007-1.993,3.107-2.873
		C410.737,368.843,425.823,356.05,441.497,344.01 M510.043,560.083c-0.633,8.953-3.48,17.78-8.627,25.167
		c-6.753,9.96-17.287,17.333-29.02,20.08c-11.427,2.927-23.907,1.4-34.347-4.06c-8.167-4.093-14.833-10.68-19.787-18.287
		c-0.807,15.913,6.387,32.06,19.107,41.747c8.353,6.573,18.873,10.227,29.487,10.44c0.193,5.547,2.32,11.107,6.427,14.94
		c5.14,4.92,12.793,6.873,19.713,5.353c-1.347-1.273-3.06-2.08-4.3-3.46c-4.873-4.907-6.527-11.993-7.62-18.587
		c5.453-1.673,10.72-4.067,15.353-7.413c0.587,1.587,1.407,3.127,2.707,4.253c8.687,7.493,22.84,7.967,31.647,0.413
		c6.52-5.6,11.32-13.873,11.233-22.627c-4.633,6.84-12.587,11.3-20.887,11.38c-4.8,0.167-9.467-1.54-13.46-4.1
		c0.747-1.76,1.987-3.24,2.913-4.893c3.293-5.7,5.447-12.067,6.287-18.593c3.747,1.053,7.727,1.627,11.593,0.867
		c10.227-1.507,18.527-10.34,20.24-20.413c-5.107,3.3-10.527,6.173-16.347,8.013c-4.887,1.6-9.88,3.347-15.1,3.187
		C516.697,575.276,514.383,567.123,510.043,560.083 M586.997,614.816c-6.607,2.547-11.747,8.38-13.493,15.233
		c-1.753,5.86-0.88,12.167,1.513,17.713c-4.627-4.607-9.48-9.167-15.447-11.993c-4.987-2.533-10.967-4.047-16.413-2.12
		c-6.593,2.347-11.253,8.56-12.9,15.22c-1.78,7,0.213,14.38,3.587,20.587c5.82,10.32,15.14,18.473,25.713,23.687
		c10.96,5.38,23.5,6.673,35.513,5.213c5.133-3.987,9.287-9.127,13.113-14.353c7.233-10.307,12.347-22.273,13.873-34.827
		c0.993-8.64-0.367-17.873-5.4-25.133c-3.587-5.467-9.34-9.58-15.813-10.747C596.197,612.756,591.33,612.883,586.997,614.816
		 M313.983,733.33c-12.507,2.207-19.44,19.767-10.693,29.413c1.433,2.1,4.813,1.3,5.373-1.1c0.473-2.347-2.053-3.673-2.62-5.74
		c-2.607-7.353,3.293-17.64,11.707-16.587c7.207,1.433,10.907,10.293,8.62,16.88c-0.64,2.22-3.607,3.407-3.073,5.98
		c0.213,2.333,3.633,3.327,5.107,1.473c6.547-6.187,5.747-17.14,0.507-23.9C325.577,735.15,319.67,732.316,313.983,733.33
		 M216.677,745.23c-4.773,2.92-7.18,8.853-6.527,14.327c0.54,4.627,2.18,9.12,4.44,13.18c1.693,2.26,5.087,0.76,5.52-1.753
		c-1.48-4.2-3.953-8.18-4.047-12.753c-0.267-3.32,1.507-6.86,4.58-8.28c1.887-0.753,3.94,0.14,5.253,1.553
		c2.733,2.6,3.08,6.607,3.387,10.153c0.167,1.207-0.087,2.633,0.807,3.627c1.093,1.48,3.527,1.52,4.66,0.053
		c1.147-1.187,0.593-2.927,0.593-4.38c-0.387-5.08-1.627-10.573-5.58-14.113C226.43,743.443,220.723,742.69,216.677,745.23
		 M410.49,779.016c-0.853,0.407-1.527,1.193-1.687,2.147c-1.453,6.18-3.253,12.34-6.087,18.053
		c-5.253,11.293-13.827,21.013-24.4,27.613c-9.233,5.853-19.793,9.28-30.507,11.187c-2.267,0.013-4.04,2.827-2.487,4.713
		c1.247,1.96,3.78,1.133,5.64,0.813c16.627-2.973,32.727-10.553,44.393-22.953c9.987-10.527,16.54-24.093,19.293-38.293
		C415.297,780.05,412.497,777.896,410.49,779.016z"/>
	<path fill="#9FF4E6" stroke="#9FF4E6" stroke-width="0.0625" d="M1602.95,343.143c32.78,6.247,64.147,19.84,91.22,39.347
		c24.8,17.86,45.906,40.733,62.08,66.64c14.76,23.553,25.507,49.553,32.2,76.507c8.06,32.34,10.827,66.293,5.34,99.28
		c-3.2,20.353-9.647,40.2-19.147,58.493c-24.113-7.24-49.113-11.46-74.24-12.793c-8.213-0.107-16.427-0.94-24.627-0.213
		c-18.187,0.187-36.3,2.427-54.173,5.687c-70.867,13.393-137.273,49.447-186.94,101.753c-5.913,6.127-11.533,12.533-16.94,19.107
		c-2.253,2.62-4.127,5.633-6.987,7.66c-5.96,4.473-11.62,9.327-17.253,14.18c-1.94-0.787-3.313-2.72-5.053-3.9
		c-4.44-3.687-8.947-7.287-13.567-10.727c3.5-45.973,20.54-90.9,48.687-127.447c12.467-16.26,27.36-30.52,43.307-43.327
		c29.247-23.487,61.64-42.613,91.693-64.993c22.813-17.073,44.287-36.427,61.027-59.627c11.767-16.347,21.007-34.74,25.493-54.447
		c4.907-19.787,3.193-40.88-3.347-60.087C1634.683,373.703,1621.577,354.716,1602.95,343.143z"/>
	<path fill="#FFFFFF" stroke="#FFFFFF" stroke-width="0.0625" d="M272.117,381.643c19.94-6.173,38.273-16.88,54.453-29.973
		c-4.467,15.54-6.233,31.813-6.033,47.953c0,8.833,1.32,17.58,2.407,26.32c-4.86,2.367-9.747,5.033-15.193,5.707
		C295.743,415.076,283.684,398.53,272.117,381.643z"/>
	<path fill="#FFD3E0" stroke="#FFD3E0" stroke-width="0.0625" d="M215.31,394.51c13.733-8.387,26.013-18.967,37.093-30.587
		c15.153,22.207,30.773,44.087,46.533,65.867c0.98,1.353,2.04,2.66,2.847,4.14c-25.84,11.587-53.68,19.26-82.093,20.047
		c-26.547,0.72-53.733-3.347-77.747-15.127c-15.693-7.78-30.053-19.46-38.247-35.193c12.313,6.473,26.173,9.633,40.013,10.247
		C168.803,414.77,194.037,407.79,215.31,394.51z"/>
	<path fill="#FFD3E0" stroke="#FFD3E0" stroke-width="0.0625" d="M174.737,456.303c25.967,5.067,53,5.167,78.907-0.34
		c-6.853,37.28-5.767,75.313-8.213,112.993c-0.587,13.92-2.833,27.693-4.08,41.56c-37.547-34.82-62.707-83.613-66.34-134.947
		C174.57,469.163,174.61,462.723,174.737,456.303z"/>
	<path fill="#892983" stroke="#892983" stroke-width="0.0625" d="M510.043,560.083c4.34,7.04,6.653,15.193,7.213,23.407
		c5.22,0.16,10.213-1.587,15.1-3.187c5.82-1.84,11.24-4.713,16.347-8.013c-1.713,10.073-10.013,18.907-20.24,20.413
		c-3.867,0.76-7.847,0.187-11.593-0.867c-0.84,6.527-2.993,12.893-6.287,18.593c-0.927,1.653-2.167,3.133-2.913,4.893
		c3.993,2.56,8.66,4.267,13.46,4.1c8.3-0.08,16.253-4.54,20.887-11.38c0.087,8.753-4.713,17.027-11.233,22.627
		c-8.807,7.553-22.96,7.08-31.647-0.413c-1.3-1.127-2.12-2.667-2.707-4.253c-4.633,3.347-9.9,5.74-15.353,7.413
		c1.093,6.593,2.747,13.68,7.62,18.587c1.24,1.38,2.953,2.187,4.3,3.46c-6.92,1.52-14.573-0.433-19.713-5.353
		c-4.107-3.833-6.233-9.393-6.427-14.94c-10.613-0.213-21.133-3.867-29.487-10.44c-12.72-9.687-19.913-25.833-19.107-41.747
		c4.953,7.607,11.62,14.193,19.787,18.287c10.44,5.46,22.92,6.987,34.347,4.06c11.733-2.747,22.267-10.12,29.02-20.08
		C506.564,577.863,509.41,569.036,510.043,560.083z"/>
	<path fill="#FF99AF" stroke="#FF99AF" stroke-width="0.0625" d="M586.997,614.816c4.333-1.933,9.2-2.06,13.847-1.52
		c6.473,1.167,12.227,5.28,15.813,10.747c5.033,7.26,6.393,16.493,5.4,25.133c-1.527,12.553-6.64,24.52-13.873,34.827
		c-3.827,5.227-7.98,10.367-13.113,14.353c-12.013,1.46-24.553,0.167-35.513-5.213c-10.573-5.213-19.893-13.367-25.713-23.687
		c-3.373-6.207-5.367-13.587-3.587-20.587c1.647-6.66,6.307-12.873,12.9-15.22c5.447-1.927,11.427-0.413,16.413,2.12
		c5.967,2.827,10.82,7.387,15.447,11.993c-2.393-5.547-3.267-11.853-1.513-17.713C575.25,623.196,580.39,617.363,586.997,614.816z"
		/>
	<path fill="#DFAFF6" stroke="#DFAFF6" stroke-width="0.0625" d="M1601.357,686.79c35.087-9.027,71.66-12.473,107.787-9.513
		c29.587,2.293,58.84,8.96,86.487,19.753c48.013,18.653,90.947,49.133,126.5,86.207c35.86,37.373,64.54,81.453,85.147,128.927
		c25.133,57.827,38.16,121.02,37.007,184.093c-0.12,31.28-3.88,62.5-10.207,93.12c-11.613,55.18-32.553,108.407-61.9,156.567
		c-26.387,43.233-59.673,82.453-99.22,114.2c-41.087,33.02-88.673,57.873-139.16,72.973
		c-89.927,27.193-189.08,23.253-276.273-11.927c-49.767-19.94-95.58-48.127-143.507-71.893c-21.707-10.773-43.86-20.787-66.9-28.38
		c-30.067-9.907-61.64-16-93.38-15.507c-18.513,0.447-37.047,3.14-54.7,8.82c-17.287,5.64-33.907,13.8-48.153,25.18
		c-29.687,23.94-49.707,58.98-57.213,96.213c-0.54,2.227-0.587,4.573-1.4,6.747c-2.187-17.273-3.413-34.72-2.42-52.127
		c0.907-17.9,3.7-35.74,8.847-52.927c4.7-16.133,11.56-31.6,19.913-46.167c33.707-59.22,88.94-105.753,152.853-129.293
		c33.113-12.253,68.42-17.667,103.58-19.14c62.647-2.64,124.947,6.1,187.327,10.187c33.74,2.28,67.687,3.38,101.387,0.007
		c28.22-2.667,56.26-8.687,82.553-19.4c22.807-9.373,44.453-22,62.753-38.627c36.7-33.213,59.947-79.753,68.313-128.247
		c7.633-43.747,3.633-89.9-13.833-130.92c-9.34-22.127-22.84-42.433-39.487-59.733c-18.087-19.04-38.487-35.833-60.44-50.22
		c-34.993-22.853-74.027-40.153-115.247-47.8c-21.76-3.847-44.173-5.053-66.053-1.493c-21.293,3.207-41.833,11.327-59.433,23.747
		C1468.35,744.763,1531.95,704.63,1601.357,686.79z"/>
	<path fill="#892983" stroke="#892983" stroke-width="0.0625" d="M313.983,733.33c5.687-1.013,11.593,1.82,14.927,6.42
		c5.24,6.76,6.04,17.713-0.507,23.9c-1.473,1.853-4.893,0.86-5.107-1.473c-0.533-2.573,2.433-3.76,3.073-5.98
		c2.287-6.587-1.413-15.447-8.62-16.88c-8.413-1.053-14.313,9.233-11.707,16.587c0.567,2.067,3.093,3.393,2.62,5.74
		c-0.56,2.4-3.94,3.2-5.373,1.1C294.543,753.096,301.477,735.536,313.983,733.33z"/>
	<path fill="#892983" stroke="#892983" stroke-width="0.0625" d="M216.677,745.23c4.047-2.54,9.753-1.787,13.087,1.613
		c3.953,3.54,5.193,9.033,5.58,14.113c0,1.453,0.553,3.193-0.593,4.38c-1.133,1.467-3.567,1.427-4.66-0.053
		c-0.893-0.993-0.64-2.42-0.807-3.627c-0.307-3.547-0.653-7.553-3.387-10.153c-1.313-1.413-3.367-2.307-5.253-1.553
		c-3.073,1.42-4.847,4.96-4.58,8.28c0.093,4.573,2.567,8.553,4.047,12.753c-0.433,2.513-3.827,4.013-5.52,1.753
		c-2.26-4.06-3.9-8.553-4.44-13.18C209.497,754.083,211.903,748.15,216.677,745.23z"/>
	<path fill="#892983" stroke="#892983" stroke-width="0.0625" d="M410.49,779.016c2.007-1.12,4.807,1.033,4.16,3.28
		c-2.753,14.2-9.307,27.767-19.293,38.293c-11.667,12.4-27.767,19.98-44.393,22.953c-1.86,0.32-4.393,1.147-5.64-0.813
		c-1.553-1.887,0.22-4.7,2.487-4.713c10.713-1.907,21.273-5.333,30.507-11.187c10.573-6.6,19.147-16.32,24.4-27.613
		c2.833-5.713,4.633-11.873,6.087-18.053C408.964,780.21,409.637,779.423,410.49,779.016z"/>
	<path fill="#FFF1A4" stroke="#FFF1A4" stroke-width="0.0625" d="M1449.563,792.076c17.067-7.407,35.647-11.06,54.207-11.56
		c35.373-1.153,70.4,7.773,102.793,21.487c24.96,10.613,48.593,24.287,70.4,40.407c18.847,13.987,36.347,29.853,51.64,47.68
		c17.687,20.88,30.38,45.767,37.927,72.027c16.433,58.14,8.8,122.527-20.12,175.507c-10.9,19.767-24.867,37.913-41.667,53.027
		c-18.867,17.1-41.4,29.767-65.04,39c-34.573,13.313-71.78,18.393-108.647,19.153c-8.627,0.1-17.287,0.6-25.886-0.133
		c10.44-4.113,20.16-9.92,29.413-16.233c22.173-15.367,40.4-36.027,54.28-59.067c13.787-23.013,23.24-48.627,27.607-75.093
		c5.22-30.553,3.473-62.367-5.813-91.987c-15.913-50.3-53.633-93.053-101.167-115.773c-16.133-7.66-33.38-13.067-51.087-15.507
		c-4.493-0.693-8.92-1.72-13.307-2.847c-1.553-0.173-2.273-1.66-3.16-2.713c-11.887-15.033-25.047-29.04-39.133-42.027
		C1415.284,812.15,1431.45,799.903,1449.563,792.076z"/>
	<path fill="#A5578B" stroke="#A5578B" stroke-width="0.0625" d="M1398.61,821.816c1.053,0.073,0.367,1.653-0.393,1.667
		C1397.137,823.39,1397.784,821.79,1398.61,821.816z"/>
	<path fill="#FFFFFF" stroke="#FFFFFF" stroke-width="0.0625" d="M325.543,938.556c55.44-33.367,119.973-51.86,184.767-51.447
		c0.147,3.02,0.32,6.053,0.407,9.08c-3.033,25.44-15.547,48.713-30.993,68.76c-8.073,10.42-17.027,20.147-26.573,29.233
		c-27.373-33.467-69.46-54.74-112.773-55.933C335.423,937.736,330.497,938.663,325.543,938.556z"/>
	<path fill="#FFF1A4" stroke="#FFF1A4" stroke-width="0.0625" d="M208.503,1024.35c23.087-46.727,73.127-78.82,125.26-80.107
		c50.233-1.04,99.793,26.607,125.86,69.467c1.42,2.58,3.22,4.98,4.173,7.793c-29.953,39.633-64.907,75.987-106.133,103.973
		c-39.213,26.847-84.293,45.293-131.34,52.433C191.863,1135.736,184.45,1073.276,208.503,1024.35z"/>
	<path fill="#FFF1A4" stroke="#FFF1A4" stroke-width="0.0625" d="M116.557,1271.696c49.28,17.22,95.233,43.747,135.16,77.353
		c20.393,17.28,39.367,36.32,56.087,57.193c-10.08,9.84-19.753,20.107-28.893,30.827c-56.487,11.933-116.307,7.773-170.507-12.153
		c-23.067-8.46-45.04-19.887-65.147-34.013C63.857,1348.976,88.49,1309.036,116.557,1271.696z"/>
	<path fill="#FFF1A4" stroke="#FFF1A4" stroke-width="0.0625" d="M749.323,1356.483c1.967-0.573,3.433,1.72,5.093,2.527
		c59.973,42.413,105.367,105.167,126.487,175.553c-5.147,1.3-10.24,2.787-15.413,3.953c-10.167,1.633-20.54,0.906-30.733-0.087
		c-35.42-4.107-70.053-13.94-102.98-27.5c-20.367-8.607-40.147-18.907-57.92-32.14c-13.36-10.04-25.767-21.847-34.307-36.347
		C670.47,1407.383,708.023,1378.31,749.323,1356.483z"/>
	<path fill="#FFFFFF" stroke="#FFFFFF" stroke-width="0.0625" d="M1062.477,1438.33c27.78-18.507,61.453-26.907,94.613-26.88
		c34.04-0.12,67.713,7.547,99.58,19.167c25.067,9.273,49.12,21.013,72.813,33.313c11.22,5.96,22.553,11.733,33.607,18.013
		c-3.08-0.687-6.253-0.493-9.367-0.727c-35.513-2.033-71.12-1.333-106.633,0.247c-80.1,3.907-159.893,13.26-238.993,26.427
		C1019.517,1480.423,1037.697,1455.19,1062.477,1438.33z"/>
</g>
</svg>
