<?xml version="1.0"?>
<svg xmlns:rdf="http://www.w3.org/1999/02/22-rdf-syntax-ns#" xmlns="http://www.w3.org/2000/svg" xmlns:cc="http://creativecommons.org/ns#" xmlns:xlink="http://www.w3.org/1999/xlink" xmlns:dc="http://purl.org/dc/elements/1.1/" id="svg2" viewBox="0 0 250.14 260.44" version="1.0">
  <g id="layer1" transform="translate(-51.209 -25.639)">
    <path id="path1546" fill="#fcfcfc" d="m-447.86 412.36v-125h250v250h-250v-125z"/>
  </g>
  <g id="layer2" transform="translate(-51.209 -25.639)">
    <g id="g9133" transform="matrix(0 -1 1 0 10.42 518.28)">
      <path id="path1581" fill="#2e5918" d="m337.57 277.75c-5.35-5.59-12.36-8.04-20.55-7.18-6.45 0.67-6.96 0.14-3.95-4.15 2.81-3.99 4.55-12.49 3.11-15.19-0.95-1.77-1.7-2.03-4.3-1.46-1.73 0.38-3.93 1.18-4.89 1.78-2.49 1.56-3.23 0.25-1.94-3.44 2.56-7.33 0.93-10.82-4.42-9.48-2.53 0.64-3.81 2.67-4.91 7.83-0.75 3.51-1.76 3.46-5.55-0.25-3.3-3.22-5.26-3.61-9.69-1.94-4.53 1.72-8.3 5.97-8.96 10.15-0.72 4.45-1.52 4.71-3.79 1.24-0.92-1.4-2.83-3.07-4.24-3.71-2.31-1.06-2.8-0.88-4.91 1.77l-2.35 2.94-2.13-2.29c-2.66-2.85-6.01-4.16-10.75-4.17-2.03-0.01-4.35-0.44-5.16-0.95-1.69-1.07-1.48-1.19 5.69-3.02 7-1.79 8.98-6.54 5.25-12.57-2.36-3.83-1.45-4.86 2.94-3.33 5.64 1.96 11.79-1.23 10.52-5.47-0.35-1.18-2.17-3.74-4.03-5.69-1.87-1.95-3.39-3.81-3.39-4.13s4.03-0.35 8.96-0.07c6.04 0.35 9.96 0.1 12.02-0.75 4.2-1.74 8.02-6.54 8.02-10.09 0-1.6 0.28-2.92 0.63-2.92 0.36 0 2.56 1.77 4.91 3.93 6.75 6.23 20.06 9.13 25.23 5.52 2.09-1.47 2.13-1.73 0.72-4.45-2.13-4.13-1.86-6.73 1.01-9.59 2.04-2.04 3.11-2.38 5.87-1.87 3.04 0.57 3.43 0.37 4.03-2.02 0.89-3.52 6.84-6.18 10.31-4.6 3.49 1.59 4.07 1.39 5.8-1.95l1.57-3.04-3.56-1.48c-9.62-4.03-18.84-2.6-24.77 3.82-2.07 2.24-3.82 3.65-3.89 3.15-0.08-0.51-0.19-3.39-0.25-6.42-0.11-5.47-0.14-5.51-4.58-7.75-5.16-2.6-11.58-2.87-17.53-0.72-5.06 1.82-5.5 1.81-5.5-0.08 0-0.85 1.46-2.17 3.25-2.92 1.78-0.75 4.6-2.78 6.24-4.51 2.5-2.62 2.97-3.89 2.83-7.58-0.09-2.44-0.06-4.44 0.07-4.44 0.14 0 2.32 0.71 4.85 1.57 4.18 1.42 4.87 1.42 7.66-0.02 4.26-2.2 5.16-7.07 2.56-13.8-1.33-3.44 2.48-1.8 4.96 2.13 2.6 4.12 6.55 6.12 12.1 6.12 4.61 0 5.81-1.93 4.98-7.97-0.4-2.88-0.3-5.03 0.22-5.03 0.51 0 3.49 2.91 6.63 6.46 6.38 7.22 11.12 9.23 14.51 6.16 2.7-2.44 3.76-2.02 7.04 2.74 2.32 3.38 3.99 4.63 7.43 5.59 5.2 1.46 8.17 1.11 8.17-0.96 0-1.07-1.13-1.49-4-1.49-3.27 0-4.06-0.37-4.3-2.04-0.16-1.12-2-4.03-4.1-6.47-3.44-3.99-4.26-4.43-8.21-4.43-2.42 0-5.63 0.37-7.14 0.83-2.67 0.8-2.75 0.71-2.76-3.03 0-2.12-0.9-5.33-1.99-7.12-2.12-3.48-7.41-7.23-10.19-7.24-2.75 0-3.09-1.84-0.86-4.67 2.26-2.87 2.03-5.06-0.97-9.33-1.55-2.2-4.98-11.97-4.98-14.181 0-1.472 3.04-0.858 3.66 0.738 0.74 1.943 14.23 11.133 17.58 11.963 3.17 0.8 5.36-1.35 6.79-6.63 1.29-4.808 2.71-4.662 4.48 0.46 1.69 4.92 3.93 7.31 8.17 8.71 4.54 1.5 8.6-0.17 11.39-4.68 1.15-1.86 2.5-3.38 3.01-3.38 0.5 0 0.92 2.61 0.92 5.79 0 7.46 2.51 17.06 5.22 19.95 1.38 1.47 3.29 2.26 5.45 2.26 3.6 0 4.44 1.83 1.83 4-1.93 1.6-1.9 3.33 0.14 7.3 2.65 5.18 5.36 5.84 5.36 1.3 0-2.58 2.51-5.21 5.5-5.76 1.57-0.29 2.11-1.39 2.56-5.23 0.36-3.12 1.23-5.35 2.44-6.23 2.59-1.9 7.45-1.73 9.73 0.33 1.63 1.48 2.02 1.51 2.81 0.25 1.74-2.75 0.95-3.67-5.79-6.76-5.44-2.5-7.58-2.99-11-2.52-5.04 0.69-5.39-0.32-1.75-5.09 1.38-1.81 2.5-4.62 2.5-6.28 0-4.32-3.01-6.56-9.52-7.1-3.02-0.25-5.48-0.8-5.48-1.22 0-0.413 1.8-2.554 4-4.754 2.7-2.704 4-4.881 4-6.717 0-3.5-2.79-9.37-5.16-10.848-2.74-1.713-2.24-3.267 1.39-4.307 3.77-1.082 11.13-10.722 12.49-16.364 1.11-4.579 2.27-4.425 3.77 0.5 1.63 5.358 6.76 12.718 14.03 20.098 4.03 4.095 6.77 7.999 8.4 11.988 1.34 3.253 4.38 9.739 6.77 14.414l4.35 8.5-2.27 0.85c-4.48 1.68-5.28 2.39-5.59 4.95-0.46 3.88 1.45 6.7 4.54 6.7 5.51 0 16.85-14.7 21.35-27.664 2.07-5.959 7.93-34.064 7.93-38.026 0-5.516 4.28-2.699 6.06 3.985 0.62 2.313 1.82 4.985 2.67 5.937 1.23 1.381 1.3 2.029 0.32 3.204-1.43 1.721-6.07 14.445-9.69 26.564-1.85 6.22-2.68 11.79-3.08 20.75-0.58 12.72-1.22 14.18-4.71 10.68-1.06-1.06-1.57-3.42-1.57-7.18v-5.62l-5.75 5.99c-5.24 5.44-13.82 11.33-16.63 11.41-0.62 0.02-1.9 1.1-2.85 2.4-1.66 2.29-1.64 2.43 0.63 3.92 3.17 2.07 4.01 5.95 2.09 9.66-1.32 2.56-2.12 2.99-5.52 2.99-5.5 0-5.27 2.34 1 9.87 4.5 5.41 5.5 6.09 10.54 7.13 3.07 0.64 7.36 0.86 9.53 0.49 4.73-0.8 5.06 0.47 1.93 7.37-1.08 2.4-1.97 6-1.96 8 0.03 5.12 3.75 11.22 7.66 12.56 4.66 1.58 5.02 2.44 1.55 3.65-5.18 1.81-6.73 5.24-6.65 14.68 0.04 4.54-0.22 8.25-0.58 8.25s-2.08-1.99-3.83-4.42c-5.66-7.89-15.14-11.61-20.54-8.07-2.95 1.93-2.95 1.93-2.66-5.16 0.26-6.37-1.13-9.1-5.56-10.95-3.01-1.26-3.79-1.25-6.36 0.08-3.99 2.06-4.77 0.34-1.68-3.72 5.05-6.66 3.97-17.27-2.17-21.41l-3.23-2.17 3.74-3.09c3.41-2.81 3.6-3.22 2.15-4.66-1.44-1.45-1.83-1.36-4.42 1.04-2.16 2-3.67 2.56-6.38 2.33-3.06-0.26-3.82-0.86-5.44-4.35l-1.89-4.06-6.11 0.44c-7.27 0.51-10.93 1.72-10.37 3.43 0.63 1.91 7.92 5.71 11.01 5.72 3.26 0.02 3.48 1.05 0.75 3.52-2 1.81-2.71 6.97-1.24 9.03 2.2 3.1 6.8 5.47 10.62 5.49l4.12 0.01-3.63 3.24c-1.99 1.77-4.22 4.78-4.95 6.67-1.6 4.15-1.53 13.19 0.14 17.21 0.66 1.6 0.96 3.16 0.65 3.47-1.43 1.43-8.56 2.2-12.41 1.34-2.71-0.61-5.14-0.59-6.82 0.05-1.44 0.54-4.62 0.99-7.08 0.99-5.07 0-6.67-1.94-4.03-4.87 2.26-2.48 2.13-9.36-0.2-11.47-2.14-1.94-6.03-2.14-9.63-0.5-3.16 1.44-4.38 0.44-2.32-1.9 0.85-0.97 2.76-4.17 4.24-7.12 2.35-4.7 2.54-5.73 1.49-8.25-0.84-2.04-1.9-2.89-3.58-2.89-3.39 0-2.94-1.79 1.38-5.54 2.06-1.79 3.43-3.58 3.05-3.97-1.58-1.62-11.84 7.48-13.82 12.26-0.51 1.24-1.57 2.25-2.34 2.25s-1.9 0.6-2.51 1.34c-0.87 1.04-0.29 1.87 2.61 3.75 4.91 3.19 6.03 6.47 3.81 11.15-1.59 3.36-1.6 3.77-0.04 6.14 2.02 3.08 1.21 8.16-1.53 9.63-1.02 0.54-3.41 0.99-5.32 0.99-2.96 0-3.62 0.44-4.52 3-0.59 1.72-2.57 3.91-4.59 5.1-2.8 1.65-3.55 2.73-3.55 5.05 0 6.38 4.91 11.85 10.66 11.85 4.37 0 5.24 1.87 1.99 4.24-4.41 3.21-3.35 11.5 2.09 16.25l2.76 2.41-3.32 0.69c-4.64 0.96-6.61 4.31-5.84 9.94 0.34 2.46 0.29 4.43-0.11 4.38-0.4-0.06-2.58-2.02-4.83-4.37z"/>
      <path id="path6236" opacity=".29775" d="m414.69 57.187c-4.89 5.578-11.12 12.527-14.41 17.844 4.71-2.125 11.91-7.205 16.13-1.312 4.18 9.705 11.8 17.41 17.31 26.401 4.2 4.82 1.17 11.91 5.16 16.6 4.89-1.71 7.13-8.89 5.31-13.66-4.72-13.98-18.13-22.806-23.13-36.779-1.29-3.179-3.29-7.49-6.37-9.094zm61.81 0.188c-2.84 0.515-3.19 3.884-3.28 6.25-0.3 5.551-1.53 10.99-3.09 16.312-0.85 2.847-1.41 5.785-2.1 8.657-3.15 7.363-2.66 16.146-7.75 22.686-2.28 5.76-6.64 10.57-11.9 13.78 7.55-2.62 12.18-9.8 15.34-16.75 1.31-3.21 3.15-6.3 3.44-9.81 1.39-7.905 3.77-16.008 9.12-22.188 2.42-2.567 5.95-3.966 7.97-6.906-4.27-2.757-4.09-8.739-7.69-12.031-0.02 0.004-0.04-0.004-0.06 0zm-144.19 40.469c0 0.003-0.03 0.028-0.03 0.031s-0.03 0.028-0.03 0.031c-3.83 0.618-4.23 5.004-1.69 7.374 4.4 5.02 9.95 10.81 17.19 9.75 9.36 1.01 18.54 4.05 27.72 5 8.15 6.91 7.5 19.78 16.44 26.31 3.04 3.44 7.11-0.78 6.68-4.34 0.45-6.27-7.09-8.08-8.4-13.78-2.98-5.71-2.9-14.69-9.88-17.16-5.85 5.79-14.44 0.81-18.84-4.34-1.77-2.22-3.29 2.82-5.66 2.94-9.12 3.64-18.54-4.15-23.28-11.316 0-0.011-0.02-0.051-0.03-0.063v-0.031c-0.01-0.079-0.02-0.199-0.03-0.281v-0.063c-0.01-0.005-0.03-0.025-0.03-0.031v-0.031h-0.03c-0.01-0.001-0.03 0-0.03 0h-0.07zm7.5 46.246c-3.98 7.07-13.35 5.41-19.84 3.47-3.29-1.2-5.71 0.31-6.38 3.53-1.8 4.76-7.35 5.97-11.62 4.38-8.21 2.38-7.78 14.02-14.41 18 8.39-1.59 12.02-12.23 19.94-14 10.88 0.42 21.06-9.06 32.03-4.41 8.59 1.96 16.41 11.6 25.6 7.35 4.63-1.78 3.15-7.49-0.35-9.35-3.77-3.19-9.11-3.75-13.37-2.19-4.66-0.65-7.23-5.9-11.6-6.78zm44.16 13.44c-4.49 0.38-8.33 4.89-6 9.31 1.16 4.98 7.94 5.44 8.16 10.5 3.17 8.16 10.92 17.21 5.53 26.19-0.44 4.53 1.76 11.06 6.4 12.38 3.86-2.88 0.15-7.98 1.88-11.91 0.84-6.2 5.28-12.59 4.65-18.31-8.02 2.36-13.48-7.98-9.9-14.57 0.19-0.23 0.32-0.48 0.4-0.68 0.03-0.07 0.05-0.16 0.07-0.22v-0.28c-0.01-0.02-0.03-0.08-0.03-0.1 0-0.01-0.01-0.05 0-0.06-0.01-0.01-0.03-0.05-0.04-0.06 0-0.01-0.02-0.05-0.03-0.06-0.05-0.11-0.13-0.22-0.22-0.32l-0.06-0.06c-1.13-1.03-4.33-1.45-5.22-2.81-3.1-1.78-5.8-5.46-4.5-8.91-0.23-0.01-0.46-0.03-0.68-0.03-0.11 0-0.21-0.01-0.32 0h-0.09zm48.22 0.72l-0.03 0.03c-0.01 0.01-0.05 0.03-0.07 0.03-0.77 0.31-4.17 0.34-5.09 1.44l-0.03 0.03c-0.02 0.03-0.05 0.07-0.06 0.09s-0.03 0.05-0.03 0.07c-0.03 0.06-0.05 0.13-0.07 0.18 0 0.03-0.02 0.08-0.03 0.1v0.25c0.01 0.06 0.01 0.15 0.03 0.22 0.07 0.23 0.22 0.49 0.44 0.78 0.32 0.5 0.65 1.01 1 1.5-1.73 6.33 7.05 8.4 10.78 11.65 4.5 2.47 6.69 7.23 7.78 11.88 4.93 8.73 7.93 19.08 7.72 28.81-0.29 1.04-0.45 2.13-0.37 3.28-0.14 1.86 1.71 4.15 4.97 7.53 2.62-5.85-0.22-15.65 2.87-19.21 3.09-2.87 4.98-4.27 5.25-5.29 0-0.01 0.03-0.04 0.03-0.06v-0.34c0-0.02-0.02-0.07-0.03-0.1-0.01-0.01-0.03-0.05-0.03-0.06-0.01-0.01-0.03-0.05-0.03-0.06-0.01-0.01-0.03-0.05-0.03-0.06-0.43-0.68-1.84-1.34-4.41-2.41-5.53-6.19-6.6-15.12-3.37-22.72 0.48-0.83 0.61-1.48 0.53-1.97-0.01 0 0-0.02 0-0.03-0.01-0.03-0.03-0.09-0.03-0.12-0.01-0.01 0-0.03 0-0.03-0.02-0.04-0.05-0.1-0.07-0.13-0.04-0.08-0.1-0.18-0.15-0.25-0.03-0.03-0.08-0.07-0.1-0.09-1.13-1.11-4.45-0.66-5.97-0.35-9.12-0.24-16.87-7.21-21.37-14.59-0.01 0.01-0.03 0-0.03 0zm-146.06 44.91c-0.51 0.07-0.9 0.25-1.19 0.46-1.87 1.44 0.31 5.69 0.81 7.82 0.04 0.47-0.03 0.88-0.19 1.22-1.01 2.11-5.53 1.97-8.34 3.06-4.21-0.15-8.59-0.87-12.16-0.72-2.41 0.29-5.17-0.01-7.28 1.31h-0.03v0.03l-0.03 0.03v0.04c0.01 0 0.03 0.03 0.03 0.03l0.03 0.03 0.03 0.03c1.05 0.68 9.44 2.18 13.85 1.34 0.35-0.06 0.71-0.14 1.09-0.18-3.14 1.28-6.53 2.77-8.06 4.43 1.54 0.88 1.89 1.97 1.56 3.07l-4.5 2.37c-0.04 0.51-0.02 1.2-0.06 1.88-0.12 0.04-0.24 0.08-0.35 0.12-0.86 0.63-2.13 1.32-3.43 2.09-0.01 0.01-0.03 0.01-0.03 0-2.71-0.43-6.61-1.25-7.54-1.12h-0.06l-0.03 0.03h-0.03l-0.03 0.03-0.03 0.03c-0.01 0.02-0.03 0.06-0.03 0.07-0.01 0-0.03 0.02-0.04 0.03v0.06c0 0.01-0.02 0.05-0.03 0.06v0.1c0.01 0.01 0.03 0.05 0.03 0.06v0.09c0.24 0.96 1.91 2.71 3.85 3.63-1.06 1.31-1.42 2.84-0.28 4.65-0.31 0.5-0.71 1.21-1 1.88-0.7 0.33-1.4 0.66-2.1 1-0.55 2.16-2.84 2.52-4.56 3.4-1.59 1.16-3.78 0.25-5.25 1.29-0.09 0.06-0.18 0.15-0.22 0.21 0 0.02-0.02 0.05-0.03 0.07v0.12c0 0.01 0.03 0.05 0.03 0.06 0.01 0.01 0.03 0.03 0.03 0.04 0.01 0 0.03 0.02 0.03 0.03 0.06 0.03 0.14 0.06 0.22 0.09 1 0.35 4.03 0.18 6.41-0.97 2.03-1.16 4.08-2.33 6.03-3.62 0.06-0.03 0.16-0.07 0.22-0.1 0.2-0.11 0.45-0.25 0.72-0.43 5.85-2.29 9.55-7.56 14.22-11.07 11.91-7.21 24.39-13.68 38.43-15.22 1.17-0.14 3.55-1.29 4.38-2.31l0.03-0.03c0.08-0.11 0.15-0.24 0.19-0.34 0-0.01 0.02-0.05 0.03-0.07 0-0.01 0.02-0.05 0.03-0.06v-0.22c-0.01 0-0.03-0.02-0.03-0.03v-0.06c-0.01-0.02-0.03-0.05-0.03-0.06l-0.03-0.03c-0.01-0.01-0.03-0.06-0.03-0.07-0.01 0-0.03-0.02-0.04-0.03l-0.03-0.03s-0.02-0.03-0.03-0.03c-0.03-0.02-0.09-0.07-0.12-0.09-0.32-0.2-0.89-0.35-1.75-0.41-7.9-1.58-17.4-2.11-22.47-9.09-0.22-0.01-0.41-0.02-0.6 0h-0.12c-0.04 0-0.06-0.01-0.09 0zm40.71 20.37c-0.01 0.01-0.05 0.03-0.06 0.03-0.01 0.01-0.05 0.03-0.06 0.03-7.37 4.55-2.62 14.26 0.94 19.85 6.12 9.41 14.18 19.92 12.34 31.68 6.83-0.21 8.66-9.42 7.25-14.87-0.25-3.84-6.43-5.26-2.91-8.75 2.79-3.57 1.44-9.8-3.75-9.66-8.13 0.1-8.9-10.28-11.62-15.84-0.36-0.52-0.86-1.84-1.5-2.31-0.01-0.01-0.05-0.03-0.06-0.03-0.02-0.01-0.06-0.03-0.07-0.04-0.01 0-0.04-0.02-0.06-0.03-0.01 0-0.05-0.02-0.06-0.03-0.02 0-0.07-0.02-0.09-0.03h-0.29z" fill="#9dff02"/>
      <g id="g2483" transform="translate(29.785 -31.878)">
        <path id="path1598" d="m361.55 231.95a10.934 12.027 0 1 1 -0.08 -1.48" fill="#f00" transform="matrix(.63333 0 0 .69697 181.41 19.262)"/>
        <path id="path1589" d="m404.8 172.3c-2.16-0.43-3.55 2.25-1.06 2.76 2.02 1.22 5.32-1.81 2.4-2.7-0.44-0.11-0.89-0.08-1.34-0.06zm-7.63 5.22c-3.34 2.98-5.58 9.11-0.72 11.89 2.09 1.56 5.02 0.51 6.91-0.81-3.87-0.33-6.83-3.43-5.96-6.73 0.18-1.81 2.06-3.14 1.42-5.06-0.55 0.24-1.1 0.48-1.65 0.71zm11.4 0.42c-2.22 1.04-3.66 1.81-0.91 2.82 1.01 2.24-0.84 4.66-0.46 6.99 1.94-2.44 6.31-5.74 3.95-8.99-0.61-0.56-1.76-1.38-2.58-0.82z"/>
        <path id="path2473" opacity=".77528" d="m407.83 176.33c-1.5-1.17-3.55-1.57-5.41-1.16-1.21 0.26-2.39 0.99-2.9 2.14-0.42 0.91-0.39 1.95-0.15 2.9 0.28 0.67 1.04 0.95 1.7 1.1 0.54 0.09 1.11 0.18 1.65 0.02 0.24-0.28-0.07-0.8 0.04-1.18 0.06-1.3 0.9-2.49 2.04-3.09 1.01-0.55 2.21-0.73 3.33-0.53-0.1-0.07-0.2-0.13-0.3-0.2z" fill="#fff"/>
      </g>
      <path id="path2490" d="m361.55 231.95a10.934 12.027 0 1 1 -0.08 -1.48" fill="#f00" transform="matrix(.60602 -.18397 -.20246 -.66692 259.01 362.09)"/>
      <path id="path2492" d="m428.31 150.77c-1.94 1.03-4.04-1.13-1.82-2.34 1.58-1.76 5.62 0.18 3.09 1.89-0.39 0.23-0.83 0.34-1.27 0.45zm-8.81-2.79c-4.06-1.88-7.99-7.1-4.15-11.16 1.54-2.1 4.66-1.95 6.85-1.24-3.61 1.44-5.55 5.27-3.75 8.17 0.7 1.68 2.89 2.41 2.83 4.43-0.6-0.06-1.19-0.13-1.78-0.2zm10.78-3.7c-2.43-0.36-4.03-0.68-1.69-2.45 0.32-2.43-2.15-4.21-2.47-6.55 2.57 1.77 7.71 3.66 6.39 7.46-0.41 0.71-1.29 1.83-2.23 1.54z"/>
      <path id="path2494" opacity=".77528" d="m428.04 139.43c-1.09-1.56-2.94-2.53-4.84-2.68-1.23-0.1-2.57 0.25-3.4 1.2-0.66 0.75-0.94 1.76-0.98 2.73 0.07 0.73 0.72 1.21 1.31 1.55 0.48 0.25 1.01 0.49 1.57 0.5 0.31-0.2 0.16-0.79 0.38-1.12 0.44-1.22 1.58-2.12 2.85-2.36 1.12-0.24 2.32-0.06 3.34 0.46-0.07-0.09-0.15-0.19-0.23-0.28z" fill="#fff"/>
      <g id="g2499" transform="translate(12.636 -44.949)">
        <path id="path2501" d="m361.55 231.95a10.934 12.027 0 1 1 -0.08 -1.48" fill="#f00" transform="matrix(.63333 0 0 .69697 181.41 19.262)"/>
        <path id="path2503" d="m404.8 172.3c-2.16-0.43-3.55 2.25-1.06 2.76 2.02 1.22 5.32-1.81 2.4-2.7-0.44-0.11-0.89-0.08-1.34-0.06zm-7.63 5.22c-3.34 2.98-5.58 9.11-0.72 11.89 2.09 1.56 5.02 0.51 6.91-0.81-3.87-0.33-6.83-3.43-5.96-6.73 0.18-1.81 2.06-3.14 1.42-5.06-0.55 0.24-1.1 0.48-1.65 0.71zm11.4 0.42c-2.22 1.04-3.66 1.81-0.91 2.82 1.01 2.24-0.84 4.66-0.46 6.99 1.94-2.44 6.31-5.74 3.95-8.99-0.61-0.56-1.76-1.38-2.58-0.82z"/>
        <path id="path2505" opacity=".77528" d="m407.83 176.33c-1.5-1.17-3.55-1.57-5.41-1.16-1.21 0.26-2.39 0.99-2.9 2.14-0.42 0.91-0.39 1.95-0.15 2.9 0.28 0.67 1.04 0.95 1.7 1.1 0.54 0.09 1.11 0.18 1.65 0.02 0.24-0.28-0.07-0.8 0.04-1.18 0.06-1.3 0.9-2.49 2.04-3.09 1.01-0.55 2.21-0.73 3.33-0.53-0.1-0.07-0.2-0.13-0.3-0.2z" fill="#fff"/>
      </g>
      <path id="path2509" d="m361.55 231.95a10.934 12.027 0 1 1 -0.08 -1.48" fill="#f00" transform="matrix(-.63333 0 0 .69697 636.28 -10.614)"/>
      <path id="path2513" opacity=".77528" d="m410.14 152.51c-1.17-1.5-1.57-3.56-1.16-5.41 0.26-1.21 0.99-2.39 2.14-2.91 0.91-0.42 1.95-0.39 2.9-0.15 0.67 0.28 0.95 1.04 1.1 1.7 0.1 0.54 0.18 1.12 0.02 1.65-0.28 0.25-0.8-0.07-1.18 0.05-1.3 0.06-2.48 0.89-3.09 2.04-0.55 1-0.73 2.2-0.53 3.33-0.07-0.1-0.13-0.2-0.2-0.3z" fill="#fff"/>
      <path id="path2511" d="m412.89 142.42c2.16-0.43 3.55 2.25 1.06 2.77-2.02 1.21-5.32-1.81-2.4-2.71 0.44-0.11 0.89-0.08 1.34-0.06zm7.63 5.23c3.34 2.97 5.58 9.11 0.72 11.88-2.09 1.56-5.02 0.51-6.91-0.8 3.87-0.33 6.83-3.43 5.96-6.74-0.18-1.81-2.06-3.14-1.42-5.06l1.65 0.72zm-11.4 0.41c2.22 1.05 3.66 1.81 0.91 2.82-1.01 2.24 0.84 4.66 0.46 6.99-1.94-2.43-6.31-5.73-3.95-8.99 0.61-0.56 1.76-1.38 2.58-0.82z"/>
      <path id="path1564" d="m334.94 277.97c-4.88-10.02-24.92 0.03-25.13-9.6 5.09-5.55 8.96-22.32-3.65-14.4-9.08 3.53 3.39-22.14-7.87-10.34-2.36 15.9-16.91-6.99-23.43 7.08-0.11 8.93-6.11 12.12-11.36 3.74-4.51-1.92-8.04 8.58-12.28-0.05-4.71-1.97-23.86-4.5-8.86-5.21 6.99-0.26-14.44-0.53-3.25-3.36 7.32-0.34 14.23-6.69 7.68-12.81-4.71-10.27 21.12 1.77 11.87-10.2-6.58-4.29-7.22-13.2 2.74-9.28 11.44 4.27 20.08-5.04 23.97-13.57 6.45 5.31 22.54 16.45 27.88 6.96-4.12-13.65 11.61-14.2 18.99-20.45 4.79 2.06 14.55-1.82 4.59-4.01-10.5-6.9-18.72 8.21-26.67 7.22 5.36-15.59-13.07-17.06-23.8-13.65-12.74-2.01 9.78-9.49 8.39-16.15-5.85-16.03 21.31 4.41 15.96-14.36-3.39-13.6 8.44-1.51 12.59 2.21 10.4 5.95 8.06-6.62 8.76-12.19 9.19 0.75 14.25 20.93 24.51 10.97 6.79 2.12 12.97 16.29 19.68 10.37-11.39 0.98-14.54-18.71-28.2-11.14-3.9-5.04-4.48-17.77-15.62-18.28-5.39-3.9 6.1-10.08-2.05-16.2-3.93-5.39-5.37-23.332 4.32-11.94 6.51 7 19.91 14.87 21.72 0.096 7.84-1.763 6.8 18.464 18.5 11.984 4.75-8.64 14.07-10.17 11.29 2.37-0.06 9.38 3.31 19.09 13.5 19.23-2.88 3.18-1.57 19.18 1.81 9.26 9.19-3.02 6.18-21.09 19.58-15.49 8.37 1.36-9.41-6.54-12.48-4.78-15.99 1.13 8.81-16.55-7.27-18.68-6.36 0.73-13.16-2.73-5.26-8.266 13.88-7.438-13.17-21.411 3.94-23.966 6.37-3.252 8.31-19.297 11.82-19.11 1.29 9.648-5.4 23.187-15.95 23.575 7.54 2.373 10.47 17.552 2.46 22.662-9.55 4.485 9.4-1.286 10.73 5.925 7.67 3.99-6.53 15.95 1.24 13.65 6.79-1.06 26.21 10.37 11.97 13.46-12.75-7.2-8.48 11.95-17.91 14.62-5.53 13.9-10.29-7.98-12.58-10.93-9.22-4.57-9.28-17.56-9.1-26.52 0.46-0.6-9.45 13-16.13 6.43-6.88-0.14-7.32-16.775-9.59-6.25-7.78 10.88-22.8-6.03-26.4-7.67 3.23 7.15 7.66 19.62 5.38 23.47 13.43 0.48 8.73 22.36 22.78 17.07 8.89 3.17 12.96 13.42 21.65 15.98-7.28 12-18.22-5.62-25.34-5.34-9.23 5.27-17.86-9.89-20.55-12.25 7.51 14.83-17.02 15.99-20.28 3.93-3.47-5.38 5.22 11.98-3.78 13.25-6.25 3-13.79-1.93-13.45 8.2-2.26 4.78-16.88 10.41-4.59 6.14 8.96-2.53 25.31 1.67 20.71 13.94-0.79 3.29 8.64-11.36 15.21-6.98 5.99-4.29 23.75 2.92 14.17 11.57-5.6 1.76-13.64-1.45-16.49 6.52-10.94-2.12-9.02 8.54-9.01 15.38-9.83 5.6-22.87 0.23-30.83-5.71-2.95 12-16.94 12.35-26.85 10.4-3.78-2.12 12.73 13.68 0.01 15.95-12.62-3.18-1.93 13.33-13.39 15.2 6.66 4.06 10.36 6.15 17.07 2.96 6.88 6.15 6.72 1.4 11.08-4.58 5.26-6.68 15.32-4.29 19.81-0.2-0.74-10.72 20.39-13.14 13.12-0.55-6.64 12.02 12.79-4.62 11.58 9.47 2.73 7.19-11.72 17.6 1.28 14.12 7.24 0.59 14.15 3.19 20.06 7.38-0.99-5.77 7.96-9.9 7.51-10.59-7.57-3.92-4.43-15.02-3.21-19.23-13.62-1.37-15.53-19.72-3.52-24.56 4.22-4.22 17.52-5.63 9.97-14.63 3.54-7.17 2.12-14.52-6.58-16.39 4.97-7.57 12.2-17.52 20.65-19.84-5.49 5.22-12.11 16.25-15.96 18.33 12.32 3.15 4.82 18.35 6.82 27.41-3.2 6.88-13.06 3.16-15.38 11.75-11.34 6.17 4 15.52 10.36 17.14-6.44 6.41-5.65 14.87 1.94 20.58-3.19 4.39-11.08 6.23-8.84 14.57-2.93 1.96-6.62-0.94-8.76-2.82zm119.17-54.21c-4.53-10.29-16.84-9.19-23.71-7.45 2.53-10.41-2.9-20.83-14.77-16.23 0.62-7.86 10.31-22.78-3.33-28.23-0.46-4.19 11.32-12.07 1.38-5.23-11.16 7.86-12.25-12.8-23.97-6.12-8.98 5.02 18.97 2.73 8.37 10.97-8.92 9.47 8.55 12.19 13.03 13.82-6.16 6.67-13.1 15.8-8.58 25.61 3 14.35-18.69 6.03-27.14 9.27-16.19 1.62 5.8-19.5-11.11-17.64-13.34 6.64-3.14-9.57-0.86-14.67 2.82-7.01-11.92-4.28-3.27-10.46 2.98-3.4 16.81-13.68 8.07-3.63-11.68 4.76 4.21 9.49-1.74 17.91-0.87 4.67-12.9 14.22-2.17 7.38 11.75-4.11 11.44 12.44 8.71 17.21 8.64-0.49 17.57 0.64 25.99-1.49-0.96-7.97-3.19-20.49 4.28-26.52-10.96-1.31-10.67-12.92-11.55-19.31-8.05-1.99-13.51-12.81-1.08-11.89 7.59-2.99 13.96-1.7 15.33 7.1 5.02 3.67 16.67-11.12 14.45 1.99-5.93 6.48 7.64 15.43 2.16 24.65-1.7 4.47-6.69 7.47 0.45 4.51 9.44-0.2 11.98 10.86 11.27 16.71 9.17-5.98 21.52 6.56 24.33 11.41-6.24-8.14 6.22-22.92 5.96-21.88-13-2.24-8.66-21.25-6.6-27.72-11.51 3.45-30.05-8.49-26.17-20 11.97 2.2 7.61-10.89 4.46-13.15 12.68-2.31 8.96 19.73-2.61 16.2 0.38 2.18 5.37 6.18 7.53 9.06 2.29 4.51 6.64 4.29 11.06 3.91 10.11-2.91 13.5 3.97 7.76 12.23-2.89 3.91-1.45 7.78 0.73 11.61 3.17 4.61 15.64 8.16 4.42 12.56-9.18 3.09 3.24 33.14-11.08 17.51zm-18-85.15c8.42-6.8 19.29-14.89 27.08-20.61 4.03-4.29 3.59 20.81 4.9 6.26 0.08-17.76 5.41-35.264 12.9-51.158 1.07-2.302-4.6-13.489-4.45-12.769-4 19.164-5.5 39.807-18.1 55.797-2.55 10.25-22.83 16.9-19.07 1.13 3.57-4.97 8.95-5.98 2.52-12.78-5.58-10.936-9.15-23.607-20.17-30.757-4.76-5.05-12.03-18.292-6.98-21.725 2.45 17.011 20.81 24.755 25.55 40.595 2.02 7.827 16.21 22.187 2.11 24.757-0.12 14.44 14.96-4.27 17.51-10.02 8.21-15.553 9.88-33.565 13.1-50.499 11.35-3.245 10.85 17.479 8.3 25.092-6.45 16.118-10.56 33.217-10.06 50.677-7.24 8.53-9.56-12.05-8.84-11.51-4.7 9.47-14.94 14.24-24.21 18.13l-1.58 0.12-0.51-0.73z"/>
      <g id="g2518" transform="translate(5.9377 -23.178)">
        <path id="path2520" d="m361.55 231.95a10.934 12.027 0 1 1 -0.08 -1.48" fill="#f00" transform="matrix(.63333 0 0 .69697 181.41 19.262)"/>
        <path id="path2522" d="m404.8 172.3c-2.16-0.43-3.55 2.25-1.06 2.76 2.02 1.22 5.32-1.81 2.4-2.7-0.44-0.11-0.89-0.08-1.34-0.06zm-7.63 5.22c-3.34 2.98-5.58 9.11-0.72 11.89 2.09 1.56 5.02 0.51 6.91-0.81-3.87-0.33-6.83-3.43-5.96-6.73 0.18-1.81 2.06-3.14 1.42-5.06-0.55 0.24-1.1 0.48-1.65 0.71zm11.4 0.42c-2.22 1.04-3.66 1.81-0.91 2.82 1.01 2.24-0.84 4.66-0.46 6.99 1.94-2.44 6.31-5.74 3.95-8.99-0.61-0.56-1.76-1.38-2.58-0.82z"/>
        <path id="path2524" opacity=".77528" d="m407.83 176.33c-1.5-1.17-3.55-1.57-5.41-1.16-1.21 0.26-2.39 0.99-2.9 2.14-0.42 0.91-0.39 1.95-0.15 2.9 0.28 0.67 1.04 0.95 1.7 1.1 0.54 0.09 1.11 0.18 1.65 0.02 0.24-0.28-0.07-0.8 0.04-1.18 0.06-1.3 0.9-2.49 2.04-3.09 1.01-0.55 2.21-0.73 3.33-0.53-0.1-0.07-0.2-0.13-0.3-0.2z" fill="#fff"/>
      </g>
      <g id="g2526" transform="translate(3.8444 -31.552)">
        <path id="path2528" d="m361.55 231.95a10.934 12.027 0 1 1 -0.08 -1.48" fill="#f00" transform="matrix(.63333 0 0 .69697 181.41 19.262)"/>
        <path id="path2530" d="m404.8 172.3c-2.16-0.43-3.55 2.25-1.06 2.76 2.02 1.22 5.32-1.81 2.4-2.7-0.44-0.11-0.89-0.08-1.34-0.06zm-7.63 5.22c-3.34 2.98-5.58 9.11-0.72 11.89 2.09 1.56 5.02 0.51 6.91-0.81-3.87-0.33-6.83-3.43-5.96-6.73 0.18-1.81 2.06-3.14 1.42-5.06-0.55 0.24-1.1 0.48-1.65 0.71zm11.4 0.42c-2.22 1.04-3.66 1.81-0.91 2.82 1.01 2.24-0.84 4.66-0.46 6.99 1.94-2.44 6.31-5.74 3.95-8.99-0.61-0.56-1.76-1.38-2.58-0.82z"/>
        <path id="path2532" opacity=".77528" d="m407.83 176.33c-1.5-1.17-3.55-1.57-5.41-1.16-1.21 0.26-2.39 0.99-2.9 2.14-0.42 0.91-0.39 1.95-0.15 2.9 0.28 0.67 1.04 0.95 1.7 1.1 0.54 0.09 1.11 0.18 1.65 0.02 0.24-0.28-0.07-0.8 0.04-1.18 0.06-1.3 0.9-2.49 2.04-3.09 1.01-0.55 2.21-0.73 3.33-0.53-0.1-0.07-0.2-0.13-0.3-0.2z" fill="#fff"/>
      </g>
      <path id="path2536" d="m361.55 231.95a10.934 12.027 0 1 1 -0.08 -1.48" fill="#f00" transform="matrix(-.63333 0 0 .69697 650.94 -27.361)"/>
      <path id="path2540" opacity=".77528" d="m426.8 135.76c-1.18-1.5-1.57-3.56-1.17-5.41 0.27-1.21 0.99-2.39 2.15-2.91 0.9-0.41 1.95-0.39 2.89-0.14 0.68 0.27 0.95 1.04 1.1 1.7 0.1 0.54 0.18 1.11 0.02 1.65-0.27 0.24-0.8-0.08-1.18 0.04-1.3 0.06-2.48 0.9-3.09 2.04-0.55 1-0.72 2.2-0.53 3.33-0.06-0.1-0.13-0.2-0.19-0.3z" fill="#fff"/>
      <path id="path2538" d="m427.55 125.67c2.16-0.42 3.54 2.25 1.06 2.77-2.02 1.22-5.32-1.81-2.41-2.7 0.44-0.11 0.9-0.09 1.35-0.07zm7.62 5.23c3.34 2.98 5.58 9.11 0.73 11.88-2.09 1.57-5.03 0.51-6.92-0.8 3.87-0.33 6.84-3.43 5.96-6.73-0.18-1.81-2.06-3.15-1.41-5.06 0.54 0.24 1.09 0.47 1.64 0.71zm-11.39 0.41c2.22 1.05 3.65 1.81 0.9 2.83-1.01 2.24 0.84 4.65 0.46 6.99-1.94-2.44-6.31-5.74-3.95-9 0.61-0.55 1.77-1.37 2.59-0.82z"/>
      <g id="g2545" transform="translate(-58.249 18.877)">
        <path id="path2547" d="m361.55 231.95a10.934 12.027 0 1 1 -0.08 -1.48" fill="#f00" transform="matrix(.63333 0 0 .69697 181.41 19.262)"/>
        <path id="path2549" d="m404.8 172.3c-2.16-0.43-3.55 2.25-1.06 2.76 2.02 1.22 5.32-1.81 2.4-2.7-0.44-0.11-0.89-0.08-1.34-0.06zm-7.63 5.22c-3.34 2.98-5.58 9.11-0.72 11.89 2.09 1.56 5.02 0.51 6.91-0.81-3.87-0.33-6.83-3.43-5.96-6.73 0.18-1.81 2.06-3.14 1.42-5.06-0.55 0.24-1.1 0.48-1.65 0.71zm11.4 0.42c-2.22 1.04-3.66 1.81-0.91 2.82 1.01 2.24-0.84 4.66-0.46 6.99 1.94-2.44 6.31-5.74 3.95-8.99-0.61-0.56-1.76-1.38-2.58-0.82z"/>
        <path id="path2551" opacity=".77528" d="m407.83 176.33c-1.5-1.17-3.55-1.57-5.41-1.16-1.21 0.26-2.39 0.99-2.9 2.14-0.42 0.91-0.39 1.95-0.15 2.9 0.28 0.67 1.04 0.95 1.7 1.1 0.54 0.09 1.11 0.18 1.65 0.02 0.24-0.28-0.07-0.8 0.04-1.18 0.06-1.3 0.9-2.49 2.04-3.09 1.01-0.55 2.21-0.73 3.33-0.53-0.1-0.07-0.2-0.13-0.3-0.2z" fill="#fff"/>
      </g>
      <path id="path2555" d="m361.55 231.95a10.934 12.027 0 1 1 -0.08 -1.48" fill="#f00" transform="matrix(-.63333 0 0 .69697 553.11 34.825)"/>
      <path id="path2557" d="m329.72 187.86c2.16-0.43 3.54 2.25 1.06 2.77-2.02 1.21-5.32-1.81-2.4-2.71 0.43-0.11 0.89-0.08 1.34-0.06zm7.63 5.23c3.33 2.97 5.58 9.11 0.72 11.88-2.09 1.56-5.02 0.51-6.92-0.81 3.87-0.32 6.84-3.42 5.97-6.73-0.18-1.81-2.07-3.14-1.42-5.06l1.65 0.72zm-11.4 0.41c2.22 1.05 3.66 1.81 0.9 2.82-1 2.24 0.85 4.66 0.46 6.99-1.94-2.44-6.3-5.73-3.94-8.99 0.6-0.56 1.76-1.38 2.58-0.82z"/>
      <path id="path2559" opacity=".95506" d="m328.97 197.95c-1.17-1.5-1.57-3.56-1.16-5.42 0.26-1.2 0.99-2.38 2.14-2.9 0.91-0.42 1.95-0.39 2.9-0.15 0.67 0.28 0.95 1.04 1.1 1.7 0.09 0.54 0.18 1.12 0.02 1.65-0.28 0.25-0.8-0.07-1.18 0.05-1.3 0.06-2.49 0.89-3.09 2.04-0.55 1-0.73 2.2-0.53 3.33-0.07-0.1-0.13-0.2-0.2-0.3z" fill="#fff"/>
      <g id="g2564" transform="translate(-82.003 22.744)">
        <path id="path2566" d="m361.55 231.95a10.934 12.027 0 1 1 -0.08 -1.48" fill="#f00" transform="matrix(.63333 0 0 .69697 181.41 19.262)"/>
        <path id="path2568" d="m404.8 172.3c-2.16-0.43-3.55 2.25-1.06 2.76 2.02 1.22 5.32-1.81 2.4-2.7-0.44-0.11-0.89-0.08-1.34-0.06zm-7.63 5.22c-3.34 2.98-5.58 9.11-0.72 11.89 2.09 1.56 5.02 0.51 6.91-0.81-3.87-0.33-6.83-3.43-5.96-6.73 0.18-1.81 2.06-3.14 1.42-5.06-0.55 0.24-1.1 0.48-1.65 0.71zm11.4 0.42c-2.22 1.04-3.66 1.81-0.91 2.82 1.01 2.24-0.84 4.66-0.46 6.99 1.94-2.44 6.31-5.74 3.95-8.99-0.61-0.56-1.76-1.38-2.58-0.82z"/>
        <path id="path2570" opacity=".77528" d="m407.83 176.33c-1.5-1.17-3.55-1.57-5.41-1.16-1.21 0.26-2.39 0.99-2.9 2.14-0.42 0.91-0.39 1.95-0.15 2.9 0.28 0.67 1.04 0.95 1.7 1.1 0.54 0.09 1.11 0.18 1.65 0.02 0.24-0.28-0.07-0.8 0.04-1.18 0.06-1.3 0.9-2.49 2.04-3.09 1.01-0.55 2.21-0.73 3.33-0.53-0.1-0.07-0.2-0.13-0.3-0.2z" fill="#fff"/>
      </g>
      <path id="path2574" d="m361.55 231.95a10.934 12.027 0 1 1 -0.08 -1.48" fill="#f00" transform="matrix(.63333 0 0 .69697 124.26 50.845)"/>
      <path id="path2576" d="m347.65 203.88c-2.16-0.43-3.54 2.25-1.06 2.77 2.02 1.21 5.32-1.81 2.41-2.71-0.44-0.11-0.9-0.08-1.35-0.06zm-7.62 5.23c-3.34 2.97-5.58 9.11-0.73 11.88 2.09 1.56 5.03 0.51 6.92-0.81-3.87-0.32-6.84-3.42-5.96-6.73 0.18-1.81 2.06-3.14 1.41-5.06-0.54 0.24-1.09 0.48-1.64 0.72zm11.39 0.41c-2.22 1.05-3.65 1.81-0.9 2.82 1.01 2.24-0.84 4.66-0.46 6.99 1.94-2.43 6.31-5.73 3.94-8.99-0.6-0.56-1.76-1.38-2.58-0.82z"/>
      <path id="path2578" opacity=".77528" d="m351.09 209.81c-0.07-1.69-1.19-2.9-2.86-3.3-1.09-0.26-2.54-0.09-3.89 0.75-1.07 0.65-1.94 1.61-2.57 2.58-0.38 0.72-0.07 1.29 0.27 1.7 0.3 0.31 0.64 0.62 1.16 0.7 0.41-0.15 0.63-0.76 1.03-1.05 1.15-1.16 2.75-1.9 4.08-1.97 1.19-0.09 2.19 0.25 2.83 0.89-0.02-0.1-0.04-0.2-0.05-0.3z" fill="#fff"/>
      <path id="path2582" d="m361.55 231.95a10.934 12.027 0 1 1 -0.08 -1.48" fill="#f00" transform="matrix(.63333 0 0 .69697 111.56 54.712)"/>
      <path id="path2584" d="m334.56 207.75c-2.17-0.43-3.55 2.25-1.06 2.76 2.02 1.22 5.32-1.81 2.4-2.7-0.44-0.11-0.89-0.08-1.34-0.06zm-7.63 5.22c-3.34 2.98-5.58 9.11-0.72 11.89 2.08 1.56 5.02 0.51 6.91-0.81-3.87-0.33-6.83-3.43-5.96-6.73 0.18-1.81 2.06-3.14 1.42-5.06-0.55 0.24-1.1 0.48-1.65 0.71zm11.39 0.42c-2.21 1.04-3.65 1.81-0.9 2.82 1.01 2.24-0.84 4.66-0.46 6.99 1.94-2.44 6.31-5.74 3.95-8.99-0.61-0.56-1.76-1.38-2.59-0.82z"/>
      <path id="path2586" opacity=".90449" d="m328.11 219.83c-0.52-1.5-0.02-3.55 1.2-5.41 0.79-1.21 2.03-2.38 3.41-2.9 1.09-0.42 2.12-0.39 2.97-0.15 0.55 0.28 0.49 1.04 0.35 1.7-0.14 0.54-0.31 1.12-0.7 1.65-0.38 0.24-0.77-0.07-1.2 0.04-1.32 0.06-2.87 0.9-3.98 2.04-0.99 1.01-1.69 2.21-1.99 3.34-0.02-0.11-0.04-0.21-0.06-0.31z" fill="#fff"/>
      <path id="path3492" opacity=".24719" d="m332.34 207.09c-1.93 0.98-8.55 2.38-5.91 4.75 1.86-1.47 4.83-4.14 5.91-4.75zm-12.28 6.53c-5.08 3.01-9.98 8.15-16.4 7.23-4.07-0.51-6.89-3.71-8.38-7.32-3.32-1.7-4.12 4.7-0.63 5.6 2.1 1.9 6.27 5.12 5.82 7.32-10.47-0.43-21.24-1.4-30.85-5.92-0.78-4.48-6.82-0.37-2.98 2.11 3.77 2.59 8.64 2.4 12.93 3.66 4.49 1.01 9.04 2.1 13.68 1.82 2.54-0.14 7.24 3.35 2.38 4.17-3.99 1.64-8.33 1.18-12.51 0.74-4.06-0.55-7.79 1.41-11.81 1.54-3.5 0.5-7.3 0.96-10.09 3.34 8.03-0.53 15.87-3.95 24-2.6 2.93 1.52 5.19 3.6 6.11 6.72 5.46 0.48 0.43-5.23 2.97-7.44 3.43-4.59 9.71-5.81 13.05-10.51 3.59-3.55 7.67-6.68 12.31-8.74 0.26 6.42-3.11 13.24 0.25 19.32 1.26 5.1-5.22 5.18-7.96 7.3-1.13 2.81 3.9-1.3 5.16-1.39 4.84-2.69 7.52 2.78 7.72 6.8 0.91 5.04 0.87 10.23 0.24 15.29-0.78 1.98-4.92 5.86-0.34 3.69 2.55-2.18 5.51-8.74 8.57-3.21 2.2 2.6 2.12 9.19 5.72 9.17 3.46-4.5-2.65-8.44-4.12-12.42-1.93-2.95-4.72-8.28-4.75-10.45 1.68 1.86 7.82 0.91 6.17-1.18-6.27 0.2-12.09-5.84-11.35-12.14 0.23-1.85 7.06-3.9 2.32-4.25-5.51-0.11-7.32-5.65-5.32-10.03-0.13-3.19 4.52-6.85 0.1-8.01-0.51-0.49-1.46-0.98-2.01-0.21zm-42.18 26.13c-2.73 2.07-8.89 1.44-7.82 6.07-0.94 0.84-5.85 4.24-3.08 3.64 4.43-2.85 7.88-7 12.43-9.68-0.02-1.17-1.08-0.16-1.53-0.03zm-13.35 4.91c-5.42 1.8-11.19 1.66-16.81 2.22-0.93 3.88 5.96 0.86 8.47 1.06 2.69-0.98 8.79-0.23 8.96-3 0.17-0.5-0.43-0.53-0.62-0.28z"/>
      <path id="path3524" opacity=".247" d="m334.44 101.84c-6.93 2.37 2.73 9.02 5.44 11.54 2.78 1.85 10.37 8.24 3.37 9.18-3.3-0.88-9.91 0.94-10.63 3-0.01 0.04-0.02 0.09-0.03 0.13 9.16-1.04 19.59-2.15 27.6 3.43 3.61 1.81 0.27 5.63-1.5 7.16 5.89-2.8 12.88-0.31 16.75 4.75 1.35 1.69 4.7 3.74 5.03 4.91 0 0.01 0.03 0.05 0.03 0.06v0.16c0 0.02-0.02 0.07-0.03 0.09v0.03c0 0.01-0.03 0.03-0.03 0.03-0.01 0.01-0.03 0.05-0.03 0.07-0.04 0.04-0.08 0.08-0.13 0.12-0.04 0.03-0.11 0.07-0.16 0.09-0.42 0.21-1.26 0.32-2.59 0.29-1.74 0.24-4.72 1.88-4.97 2.46v0.13c0.01 0 0.03 0.03 0.03 0.03h0.03c0.01 0 0.03 0.03 0.04 0.03 0.27 0.08 1.05-0.06 2.56-0.53 3.98-1.91 13.64 0.33 13.22 4.5v0.03c-2.94 1.96-5.88 3.95-8.75 6-0.02 0.04-0.06 0.08-0.1 0.13-0.28 0.3-0.97 0.8-1.71 1.28-0.01 0-0.03-0.01-0.04 0l-0.09 0.06c-0.53 0.26-1.55 0.76-2.34 1.09-4.72 1.38-9.7 0.77-14.57 0.44 0.05-0.2 0.03-0.42-0.06-0.59-0.02-0.05-0.06-0.12-0.09-0.16-1.22-1.58-7.69-2.06-9.19-4.03-5.09-2.54-9.3-6.68-11.75-11.81-0.01-0.02-0.02-0.05-0.03-0.06-0.08-0.16-0.24-0.35-0.41-0.44 0-0.01-0.02-0.03-0.03-0.03-0.02-0.01-0.07-0.03-0.09-0.03-0.01-0.01-0.03 0-0.03 0-0.01-0.01-0.03 0-0.04 0 0-0.01-0.02 0-0.03 0s-0.05-0.01-0.06 0-0.02-0.01-0.03 0c-0.02 0-0.05 0.02-0.06 0.03-0.02 0-0.05 0.02-0.06 0.03-6.08 0.98-0.3 7.49 2.21 9.59 3.01 2.69 6.75 4.4 10.03 6.69-4.84-0.62-9.67-1.52-14.5-2.31-3-0.57-6.01-0.74-9.03-0.66 0.29-0.19 0.58-0.42 0.88-0.69-4.27-2.91-8.47-8.15-13.72-10.18l-1-0.1c-3.47 0.57-2.77 3.98 0.59 3.5 2.82 1.61 5.75 6.27 8.97 7.75-3.64 0.36-7.28 1-10.87 1.69-0.02-0.36-0.21-0.82-0.53-1.38-2.87-0.48-5.74-1.18-8.72-0.87-1.66 0.37-3.14 1.46-3.25 2.09-0.01 0.06 0.01 0.14 0.03 0.19 0.01 0.01 0.02 0.05 0.03 0.06 0.01 0.02 0.05 0.05 0.06 0.07 0.28 0.22 1.04 0.24 2.47-0.13 0.88 0.13 2.43 0.53 4.06 0.84-3.69 0.59-7.33 1.46-10.68 3.19-0.88 0.38-5.17 2.61-5.53 3-0.01 0 0 0.03 0 0.03s-0.01 0.03 0 0.03c0.06 0 0.24-0.05 0.53-0.15 0.97-0.23 3.22-1.41 3.5-1.53-0.07 0.04-0.39 0.24-1.13 0.65 2.76-0.5 7.04-2.65 10.53-3.19 4.7-0.25 9.31-1.5 14-2.03 7.71-1.27 15.52-0.25 23.1 1.35 4.09 0.71 8.2 1.2 12.34 1.56-1.53 3.31-7.69 3.95-10.34 6.91-1.86 0.33-5.49 3.27-5.69 3.93v0.1h0.03l0.03 0.03h0.1c0.28-0.03 0.98-0.36 2.21-1.09 5.6-3.23 10.74-7.58 16.91-9.63 3.52 0.25 7.07 0.43 10.59 0.53 3.6 0.17 6.83-1.19 9.88-2.97-2.31 1.94-4.2 4.29-5.25 7.25-2.1 4.82 1.47 9.86-0.91 14.66-0.85 3.86-5.48 9.38-6.19 10.87 3.68-2.82 8.62-5.12 9.07-9.78 0.93-0.75 1.68-1.04 2.25-1.03 0.09 0.01 0.2 0.01 0.28 0.03s0.18 0.06 0.25 0.1c0.05 0.02 0.11 0.06 0.15 0.09 1.24 0.82 1.19 3.72 0.69 5.03 6.09 3.23 1.83 10.73 0.44 15.63 0.07 1.74-1.66 4.44-1.59 5.12v0.03c0 0.01 0.03 0.03 0.03 0.03v0.04l0.03 0.03s0.03-0.01 0.03 0c0.01 0 0.02 0.03 0.03 0.03h0.06c0.3-0.02 0.98-0.43 2.25-1.41 3.58-2.06 3.55-8.72 4.88-10.31 5.33 3.86 4.38 13.47 6.91 16.87 6.28-3.32-1.33-9.65 1.46-13.75 1-0.89 1.84-1.51 2.16-2 0.02-0.03 0.05-0.09 0.06-0.12 0.03-0.06 0.06-0.13 0.06-0.19 0.01-0.02 0.01-0.07 0-0.09 0-0.02-0.02-0.07-0.03-0.1s-0.03-0.09-0.06-0.12c-0.23-0.31-0.89-0.58-2.12-0.91-5.71-2.04-4-8.74 1.78-8.75 1.62-0.38 6.83-3.07 7.22-3.75 0 0-0.01-0.02 0-0.03v-0.06c-0.01 0-0.03-0.03-0.03-0.03h-0.04c-0.06-0.02-0.19-0.03-0.34 0-5.14 2.16-11.58 5.54-16.84 1.9-4.06-2.87-7.47-11.69-0.97-13.68 1.98-0.89 7.22-4.08 7.72-4.85 0-0.01 0.02-0.05 0.03-0.06v-0.06h-0.03c-0.01 0 0-0.03 0-0.03h-0.03c-0.02-0.01-0.07 0-0.1 0-4.59 1.94-12.42 6.68-16 3.43 0.65-9.18 9.57-14.35 17.1-17.72 3.47-0.57 5.72-3.64 1.03-4.74-5.45-3.74-11.55-8.44-12.35-15.57-0.95-8.05 1.09-15.96 2.06-23.9-5.73 1.59-4.23 8.25-5.18 12.59-0.81 5.07-0.95 10.27-0.06 15.34-8.46-6.29-13.9-15.84-17.35-25.62 0.58-2.86-0.86-6.1-2.34-6.53-0.09-0.03-0.2-0.03-0.28-0.03-0.09-0.01-0.2 0.01-0.29 0.03-0.06 0.01-0.15 0.03-0.21 0.06-0.64 0.31-1.23 1.32-1.57 3.25 0.35 3.49 4.98 12.21-1.96 10.38-6.87-5.2-13.26-11.13-18.44-18.04zm24.18 34.47c-0.26 0.13-0.52 0.29-0.78 0.44-0.04 0.06-0.07 0.09-0.09 0.13 0 0-0.03 0.02-0.03 0.03 0 0 0.02 0.03 0.03 0.03h0.03c0.01-0.01 0.05-0.03 0.06-0.03 0.16-0.08 0.45-0.31 0.78-0.6zm29.57 18.13c-0.31 0.7-0.91 1.43-1.85 2.22-1.07 0.51-2.16 1.04-3.25 1.62 1.64-1.38 3.32-2.66 5.1-3.84zm-56.85 8.53c-9.03 4.61-15.66 12.74-20.81 21.28 6.94-3.85 9.63-12.05 15.91-16.69 1.49-1.53 3.86-3.1 4.9-4.59z"/>
      <path id="path4442" opacity=".246" d="m425.72 153.22c-3.62-0.39-3.86 4.52-2.06 6.63 1.04 2.5 3.03 5.41 1.59 8.13-0.67 1.69-5.45 2.43-4.51 3.74 1.89-0.57 3.48-2.71 5.8-1.9 2.28 0.37 3.49 2.85 3.02 4.99-0.42 6.2-2.12 12.37-5.34 17.72 3.51-0.34 4.87-4 6.27-6.7 0.81-1.6 3.15-4.97 3.56-1.42 1.85 4.33 4.56 8.58 4.39 13.47 1.49 3.96-0.78 8.28-3.66 11 3.76 0 4.88-4.83 8.34-5.47 3.05-0.01 3.87 3.57 5.33 5.61 1.32 2.26 2.66 4.73 5.02 6.04 3.73-0.63 2.06-5.11-0.51-6.09-2.02-2.16-0.42-5.82 2.35-6.28 2.83-1.77-2.04-1.18-3.23-1.46-5.64-1.59-9.47-6.61-11.77-11.76-2.02-4.25-3.42-8.78-5.53-12.99 1.73-0.4 3.42 2.12 5.04 2.96 2.45 2.03 6.45 2.97 9.05 0.69 1.35-1.6-2.77-1.24-3.83-2.25-5.65-2.41-10.33-6.59-14.35-11.16-2.24-4.27-3.12-9.08-4.97-13.5z"/>
      <path id="path5335" opacity=".246" d="m413.28 61.5c-3.5-0.03-3.19 4.255-2.75 6.675 0.15 2.768 0.45 5.516 0.54 8.293 0.54 3.398-3.73 4.944-5.67 2.258-2.44-2.026-4.82-5.461-8.43-4.757-3.23 2.333 2.05 4.257 3.69 5.526 6.59 5.138 13.34 11.217 15.56 19.599-0.59 3.166-4.37 3.806-6.97 2.896-3.23-0.16-5.38-4.197-8.56-3.153-3.82 2.813 2.53 4.723 4.83 5.183 4.52 0.93 9.14 0.16 13.7 0.39 1.55 2.42 3.86 5.19 3 8.26-1.35 2.09-3.98 2.98-6.18 4.01-1.81 0.75-5.84 1.9-5.56 3.39 4.57 0.55 7.54-5.05 12.16-3.95 2.74 2.6 7.31 2.74 9.43 5.96 1.33 2.1 2.82 4.28 4.26 6.39 1.17 3.32 7.54 0.22 4.2-2.07-2.57-1.58-3.68-4.49-5.86-6.51-2.1-2.27-4.28-5.67-2.48-8.77 4.53-0.73 9.64 1.84 13.73-1.06 1.41-1.5-3.65-1.12-5.05-1.34-3.24-0.06-6.47 0.27-9.71 0.12-3.43-2.61-6.4-6.99-5.07-11.465 0.12-4.238 5.75-5.943 5.55-10.236-1.14-3.467-4.54 0.835-4.26 3.116-0.6 3.135-3.18 6.313-6.54 6.443-3.35-0.767-2.96-5.254-4.32-7.828-2.54-8.893-2.55-18.219-3.24-27.37z"/>
    </g>
  </g>
  <metadata>
    <rdf:RDF>
      <cc:Work>
        <dc:format>image/svg+xml</dc:format>
        <dc:type rdf:resource="http://purl.org/dc/dcmitype/StillImage"/>
        <cc:license rdf:resource="http://creativecommons.org/licenses/publicdomain/"/>
        <dc:publisher>
          <cc:Agent rdf:about="http://openclipart.org/">
            <dc:title>Openclipart</dc:title>
          </cc:Agent>
        </dc:publisher>
      </cc:Work>
      <cc:License rdf:about="http://creativecommons.org/licenses/publicdomain/">
        <cc:permits rdf:resource="http://creativecommons.org/ns#Reproduction"/>
        <cc:permits rdf:resource="http://creativecommons.org/ns#Distribution"/>
        <cc:permits rdf:resource="http://creativecommons.org/ns#DerivativeWorks"/>
      </cc:License>
    </rdf:RDF>
  </metadata>
</svg>
